<?xml version="1.0" encoding="UTF-8"?>
<svg version="1.1" xmlns="http://www.w3.org/2000/svg" width="668" height="768">
<path d="M0 0 C220.44 0 440.88 0 668 0 C668 253.44 668 506.88 668 768 C447.56 768 227.12 768 0 768 C0 514.56 0 261.12 0 0 Z " fill="#024B51" transform="translate(0,0)"/>
<path d="M0 0 C1.0622945 0.00013784 1.0622945 0.00013784 2.1460495 0.00027847 C23.24925712 0.00381862 43.95335266 0.34674601 64.75 4.375 C65.76884277 4.55691895 66.78768555 4.73883789 67.83740234 4.92626953 C92.12266627 9.32284134 116.54034755 18.77212945 131.375 39.5 C145.57767682 60.73290911 153.50282572 85.06481082 160.75 109.375 C161.05147949 110.38304687 161.35295898 111.39109375 161.66357422 112.4296875 C167.36891251 131.80231463 171.34589338 151.48773391 174.75 171.375 C174.92559448 172.37611816 174.92559448 172.37611816 175.10473633 173.39746094 C178.74749215 194.25072784 179.11259866 215.00216094 179.125 236.125 C179.12708466 237.40914795 179.12916931 238.6932959 179.13131714 240.01635742 C179.1290088 252.57133529 178.9706001 265.0809936 177.87109375 277.59375 C177.79672089 278.44894226 177.72234802 279.30413452 177.64572144 280.1852417 C176.03140456 296.313164 171.07711598 310.7538734 160.51953125 323.1484375 C152.1640529 329.86581784 142.98314773 330.01196466 132.625 330.125 C131.27340044 330.15322591 129.92183548 330.18316233 128.5703125 330.21484375 C125.29681638 330.2849901 122.02400981 330.33796225 118.75 330.375 C119.05431946 330.98363892 119.35863892 331.59227783 119.67218018 332.21936035 C141.00097656 374.87695312 141.00097656 374.87695312 142.42199707 377.72680664 C143.27387055 379.42554211 144.13347808 381.12043387 145.00280762 382.81030273 C147.75 388.16975249 147.75 388.16975249 147.75 390.375 C127.62 390.375 107.49 390.375 86.75 390.375 C83.7130643 377.61987005 80.76628301 365.01660287 78.38208008 352.14746094 C77.92556884 349.68565955 77.4603319 347.22561002 76.99414062 344.765625 C76.6974233 343.18498837 76.40117962 341.60426273 76.10546875 340.0234375 C75.96803757 339.29546967 75.83060638 338.56750183 75.68901062 337.81747437 C75.1610388 334.95313021 74.75 332.29509078 74.75 329.375 C25.58 329.375 -23.59 329.375 -74.25 329.375 C-74.58 332.675 -74.91 335.975 -75.25 339.375 C-75.80147511 342.50519448 -76.38256206 345.6050391 -77.02734375 348.71484375 C-77.19875381 349.56244766 -77.37016388 350.41005157 -77.54676819 351.28334045 C-78.08907666 353.96068718 -78.6379875 356.63662355 -79.1875 359.3125 C-79.73209497 361.98506287 -80.27527482 364.65790732 -80.81752014 367.33094788 C-81.15313368 368.98317122 -81.4902749 370.63508539 -81.82933044 372.28660583 C-83.05837933 378.30474946 -84.15042207 384.32732137 -85.25 390.375 C-105.71 390.375 -126.17 390.375 -147.25 390.375 C-145.89751119 386.31753357 -144.66349542 382.95347801 -142.78125 379.20703125 C-142.29736816 378.24055664 -141.81348633 377.27408203 -141.31494141 376.27832031 C-140.79851074 375.25834961 -140.28208008 374.23837891 -139.75 373.1875 C-138.95021729 371.59760254 -138.95021729 371.59760254 -138.13427734 369.97558594 C-134.41000269 362.59791192 -130.61374381 355.26014464 -126.72460938 347.96801758 C-123.45354281 341.82623454 -120.34293417 335.60814886 -117.25 329.375 C-118.5800708 329.41427612 -118.5800708 329.41427612 -119.93701172 329.4543457 C-123.27328186 329.54030961 -126.60835105 329.60260042 -129.9453125 329.6496582 C-131.38072448 329.67457855 -132.81601257 329.70852875 -134.25097656 329.75219727 C-145.27717114 330.07898476 -153.39175829 328.73301763 -162 321.3125 C-170.16056823 312.36467695 -172.78405903 300.85889899 -175.25 289.375 C-175.46527344 288.42109375 -175.68054688 287.4671875 -175.90234375 286.484375 C-178.00470582 276.72450436 -178.40781785 267.02122536 -178.41796875 257.0625 C-178.42129715 255.89533447 -178.42462555 254.72816895 -178.42805481 253.52563477 C-178.43309724 251.05810944 -178.43546397 248.59057735 -178.43530273 246.12304688 C-178.43746114 242.44128353 -178.45556776 238.75983435 -178.47460938 235.078125 C-178.5293911 212.92612525 -177.29423951 191.03789723 -173.5625 169.1875 C-173.37083252 168.03581833 -173.37083252 168.03581833 -173.17529297 166.86087036 C-169.36818091 144.0342556 -164.53972854 121.36321834 -157.25 99.375 C-156.91742188 98.36099121 -156.58484375 97.34698242 -156.2421875 96.30224609 C-145.91137591 64.99858633 -134.42802226 32.3151683 -103.25 16.375 C-70.99364245 1.38887268 -34.95535441 -0.04893556 0 0 Z " fill="#FCFEFD" transform="translate(335.25,54.625)"/>
<path d="M0 0 C0.8871167 0.00093658 1.7742334 0.00187317 2.68823242 0.00283813 C36.75417937 0.08076326 79.36612076 2.24333775 105.5625 27.1875 C129.729055 51.98013156 136.02258713 95.23119567 140.5625 128.1875 C140.73765137 129.34741455 140.91280273 130.5073291 141.09326172 131.70239258 C142.52949949 141.8822563 142.93498872 151.92154559 142.93310547 162.19750977 C142.93751305 164.88295409 142.97409573 167.56679342 143.01171875 170.25195312 C143.10174771 184.10756119 141.66826161 197.06054008 132.07421875 207.86328125 C123.8697098 215.75449153 112.53805399 217.33920499 101.63850403 217.32794189 C100.28898172 217.33239858 100.28898172 217.33239858 98.91219634 217.3369453 C95.89693982 217.34561812 92.88172308 217.34713935 89.86645508 217.34863281 C87.70462967 217.35326201 85.54280508 217.3582868 83.38098145 217.36367798 C77.50682679 217.37679465 71.63268356 217.38324557 65.75851655 217.38768864 C62.08743464 217.39062068 58.41635584 217.39472576 54.7452755 217.39919281 C43.2560378 217.41286612 31.76680723 217.42253346 20.27756196 217.4263947 C7.02113831 217.43087447 -6.23518218 217.44841939 -19.49157447 217.4773953 C-29.74227967 217.49902248 -39.99295587 217.50909955 -50.24368364 217.51043582 C-56.3640717 217.51148314 -62.48436277 217.51737563 -68.60472679 217.53525543 C-74.36425972 217.55175382 -80.12362292 217.55388293 -85.88317108 217.54511642 C-87.99304217 217.54434699 -90.10292245 217.54867638 -92.21277046 217.55857468 C-95.10157606 217.57132887 -97.98978365 217.56539843 -100.87858582 217.55499268 C-101.70594638 217.56304908 -102.53330694 217.57110548 -103.38573903 217.57940602 C-113.21235814 217.49708825 -121.91255154 214.55698613 -129.4375 208.1875 C-137.33456383 200.00902632 -140.57348008 189.53140473 -140.640625 178.3984375 C-140.64759399 177.63101227 -140.65456299 176.86358704 -140.66174316 176.07290649 C-140.67923602 173.56938252 -140.68547753 171.0660828 -140.6875 168.5625 C-140.68850708 167.70736816 -140.68951416 166.85223633 -140.69055176 165.97119141 C-140.67879577 151.19737229 -139.75323265 136.79558076 -137.4375 122.1875 C-137.22867188 120.81513184 -137.22867188 120.81513184 -137.015625 119.41503906 C-132.34282258 89.29060678 -126.21572763 50.3826672 -103.4375 28.1875 C-102.45910156 27.16076172 -102.45910156 27.16076172 -101.4609375 26.11328125 C-76.19730915 1.28859625 -33.10928944 -0.0451322 0 0 Z " fill="#034B51" transform="translate(334.4375,81.8125)"/>
<path d="M0 0 C0 56.1 0 112.2 0 170 C-13.2 170 -26.4 170 -40 170 C-40.33 137.33 -40.66 104.66 -41 71 C-53.72804701 105.26661856 -53.72804701 105.26661856 -65.84375 139.703125 C-68.01450712 146.07725728 -70.2685345 152.41925441 -72.5625 158.75 C-72.89773682 159.68070313 -73.23297363 160.61140625 -73.57836914 161.5703125 C-73.88379639 162.40820312 -74.18922363 163.24609375 -74.50390625 164.109375 C-74.77017822 164.84124023 -75.0364502 165.57310547 -75.31079102 166.32714844 C-76 168 -76 168 -77 169 C-78.56172745 169.08685603 -80.12729344 169.10702219 -81.69140625 169.09765625 C-82.63564453 169.09443359 -83.57988281 169.09121094 -84.55273438 169.08789062 C-85.54595703 169.07951172 -86.53917969 169.07113281 -87.5625 169.0625 C-88.55958984 169.05798828 -89.55667969 169.05347656 -90.58398438 169.04882812 C-93.05604849 169.03700007 -95.52799518 169.02051849 -98 169 C-103.03756738 156.6875502 -107.66069861 144.23505543 -112.25 131.75 C-113.00587122 129.69880761 -113.76197651 127.64770146 -114.51831055 125.59667969 C-116.003892 121.56741101 -117.48856422 117.53780981 -118.97216797 113.5078125 C-121.58137403 106.42030493 -124.1945315 99.33427597 -126.8125 92.25 C-127.18987305 91.22487305 -127.56724609 90.19974609 -127.95605469 89.14355469 C-128.30700195 88.19383789 -128.65794922 87.24412109 -129.01953125 86.265625 C-129.30932861 85.47961914 -129.59912598 84.69361328 -129.89770508 83.88378906 C-131.54693046 79.56913786 -133.28450633 75.28873417 -135 71 C-135.33 103.67 -135.66 136.34 -136 170 C-145.9 170 -155.8 170 -166 170 C-166 114.23 -166 58.46 -166 1 C-152.47 1 -138.94 1 -125 1 C-118.83683144 16.36051241 -112.72630277 31.74017178 -106.65917969 47.13879395 C-102.28779675 58.2321155 -97.88148663 69.31057993 -93.4375 80.375 C-89.49180432 90.2029092 -85.62445859 100.04863561 -82 110 C-80.05465019 107.08197528 -79.13710178 104.76206708 -78.0480957 101.453125 C-77.4815905 99.74358643 -77.4815905 99.74358643 -76.90364075 97.99951172 C-76.49844711 96.76217285 -76.09325348 95.52483398 -75.67578125 94.25 C-75.24749031 92.95442904 -74.81870445 91.6590216 -74.38945007 90.36376953 C-73.25568777 86.93966934 -72.12678363 83.51399024 -70.99945068 80.08776855 C-60.23138977 47.36166535 -60.23138977 47.36166535 -56.05078125 35.92578125 C-55.78276199 35.18734985 -55.51474274 34.44891846 -55.23860168 33.68811035 C-53.1257192 28.01283472 -50.52435674 22.91817014 -47 18 C-46.2575 16.948125 -45.515 15.89625 -44.75 14.8125 C-31.61103362 1.37492075 -18.49892088 0 0 0 Z " fill="#FBFAFB" transform="translate(275,531)"/>
<path d="M0 0 C10.58005863 -0.06809398 21.15996891 -0.12299836 31.74019814 -0.15543652 C36.65435632 -0.17101437 41.56835529 -0.19210657 46.48242188 -0.22631836 C51.23516758 -0.25919554 55.98776127 -0.27691208 60.74061203 -0.28463173 C62.54327152 -0.29012481 64.34592381 -0.30084956 66.14851761 -0.31719017 C83.79737431 -0.47064425 101.35879353 0.71252788 114.73828125 13.50390625 C122.91756585 22.53078511 127.47938428 34.04126231 127.2734375 46.25390625 C125.954921 59.49557906 120.73387799 71.29049271 110.94921875 80.4375 C105.07921799 85.14291143 99.27724908 88.10042395 92 90 C98.02984854 100.41883122 104.26262451 110.6786163 110.72265625 120.8359375 C115.0357619 127.61801542 119.28723459 134.43855161 123.54003906 141.25854492 C126.40483794 145.85183204 129.27432065 150.44148036 132.17578125 155.01171875 C132.64741699 155.75719971 133.11905273 156.50268066 133.60498047 157.27075195 C134.4688279 158.63489651 135.3361338 159.99685954 136.20751953 161.35620117 C139 165.77612336 139 165.77612336 139 168 C123.49 168 107.98 168 92 168 C89.03 162.72 86.06 157.44 83 152 C81.28163585 149.05456869 79.55901994 146.11571898 77.8125 143.1875 C74.67677002 137.88857774 71.61139308 132.56844113 68.6953125 127.14453125 C66.30271883 122.70665589 63.86864059 118.29184753 61.4375 113.875 C60.97802979 113.03928467 60.51855957 112.20356934 60.04516602 111.3425293 C59.59584717 110.5256665 59.14652832 109.70880371 58.68359375 108.8671875 C58.24257324 108.05991211 57.80155273 107.25263672 57.34716797 106.42089844 C56.43732976 104.78589379 55.50327489 103.16416608 54.54736328 101.55566406 C53.8606958 100.38729004 53.8606958 100.38729004 53.16015625 99.1953125 C52.74515869 98.50711426 52.33016113 97.81891602 51.90258789 97.10986328 C50.78228575 94.49107749 50.5465644 92.81757467 51 90 C52.6965332 88.47021484 52.6965332 88.47021484 55.05078125 87.2109375 C55.89447266 86.74429688 56.73816406 86.27765625 57.60742188 85.796875 C58.50009766 85.32765625 59.39277344 84.8584375 60.3125 84.375 C62.06081971 83.42857967 63.80700562 82.47820438 65.55078125 81.5234375 C66.33106689 81.11013184 67.11135254 80.69682617 67.9152832 80.27099609 C70.04580374 79.08503882 70.04580374 79.08503882 71.65307617 77.34228516 C73 76 73 76 75 76 C75.37125 75.2265625 75.37125 75.2265625 75.75 74.4375 C77.07227818 71.85905755 78.52043033 69.3699005 80 66.87890625 C84.24602928 58.9010153 84.43023813 48.8137247 82.27734375 40.0625 C80.38525784 35.52762203 77.92096495 32.02983656 74 29 C64.29722776 24.89923762 64.29722776 24.89923762 46 25 C46 72.19 46 119.38 46 168 C32.14 168 18.28 168 4 168 C3.90948354 153.32623773 3.83589287 138.65265048 3.79275131 123.97867107 C3.77218182 117.16430813 3.74416977 110.35013179 3.69824219 103.53588867 C3.65390696 96.95472972 3.63083439 90.37371306 3.62049103 83.79239845 C3.6131237 81.28668996 3.59873719 78.78099156 3.57707977 76.27536583 C3.54786921 72.75455562 3.5440515 69.23453573 3.54589844 65.71362305 C3.53151733 64.68718689 3.51713623 63.66075073 3.50231934 62.60321045 C3.56476357 51.53840141 6.88688098 43.11741774 14.5625 35.1640625 C19.8919451 30.43247182 25.27206873 28.24264376 32 26 C21.77 25.67 11.54 25.34 1 25 C0.67 16.75 0.34 8.5 0 0 Z " fill="#FAFAFB" transform="translate(314,532)"/>
<path d="M0 0 C43.23 0 86.46 0 131 0 C131 7.92 131 15.84 131 24 C116.48 24 101.96 24 87 24 C87 71.52 87 119.04 87 168 C72.81 168 58.62 168 44 168 C43.88682178 153.08276232 43.79484749 138.1657468 43.74093914 123.24818039 C43.71523527 116.32056987 43.68023627 109.39324646 43.62280273 102.46582031 C43.56735254 95.77438688 43.53853716 89.08331257 43.52561378 82.39163971 C43.51640974 79.84487478 43.49843662 77.29812524 43.47134972 74.75148773 C43.43479654 71.17088752 43.43006586 67.59150039 43.43237305 64.01074219 C43.41439667 62.96919983 43.39642029 61.92765747 43.37789917 60.85455322 C43.44113676 51.7227671 45.95320581 43.05823165 52.125 36.125 C58.52120234 30.41310752 65.8410839 27.33111888 74 25 C37.37 24.505 37.37 24.505 0 24 C0 16.08 0 8.16 0 0 Z " fill="#FAFAFB" transform="translate(451,532)"/>
<path d="M0 0 C5.28535458 2.88292068 7.9153715 6.3806478 9.8125 12.0625 C10.88327225 17.19448952 9.74371859 21.68162938 7.18359375 26.1640625 C4.57001905 29.78285824 1.94150901 32.27803869 -2.1875 34.0625 C-7.97287907 34.99101763 -13.91797654 35.14947745 -19.25 32.4375 C-23.76286965 28.78879687 -26.73272694 24.72017473 -27.4609375 18.86328125 C-27.72877019 12.30138042 -26.58770277 8.02418697 -22.1875 3.0625 C-15.03241066 -2.51846968 -8.29756255 -3.60386672 0 0 Z " fill="#074C51" transform="translate(258.1875,324.9375)"/>
<path d="M0 0 C5.43069351 2.46849705 9.11385327 5.91520653 11.8125 11.3125 C12.58536707 17.58348474 12.62453268 22.9188228 9.1875 28.375 C6.40808449 31.92647537 4.25965753 34.07717846 -0.1875 35.3125 C-6.66028347 35.9276819 -12.74047968 36.29812463 -18.1875 32.3125 C-22.78157842 27.71842158 -24.34556214 23.9620053 -24.5 17.5 C-24.44928439 12.24459524 -23.86331864 9.28635799 -20.1875 5.3125 C-14.04729329 -0.21368604 -8.13909268 -2.55800056 0 0 Z " fill="#044B50" transform="translate(428.1875,323.6875)"/>
<path d="M0 0 C5.61 0 11.22 0 17 0 C17 56.1 17 112.2 17 170 C3.8 170 -9.4 170 -23 170 C-23.33 136.01 -23.66 102.02 -24 67 C-23.01 67.33 -22.02 67.66 -21 68 C-20.23214011 74.10454306 -19.86255451 80.02764544 -19.90234375 86.17578125 C-19.90380402 87.04355698 -19.90526428 87.9113327 -19.9067688 88.80540466 C-19.91054723 90.67142313 -19.91663409 92.53743811 -19.92483521 94.40344238 C-19.93767753 97.35327881 -19.94413335 100.30306994 -19.94897461 103.25292969 C-19.96035155 109.50197366 -19.97963123 115.75097973 -20 122 C-20.0235824 129.2704541 -20.04394577 136.54088763 -20.05593872 143.81137085 C-20.06244115 146.72364097 -20.07494199 149.63584697 -20.08764648 152.5480957 C-20.09127601 154.31852156 -20.09462811 156.08894801 -20.09765625 157.859375 C-20.10282257 158.67385605 -20.10798889 159.4883371 -20.11331177 160.32749939 C-20.11349261 162.21871013 -20.06240657 164.10981919 -20 166 C-18.84331499 167.38421065 -18.84331499 167.38421065 -15.67358398 167.11352539 C-14.19774444 167.11336629 -12.72189931 167.10767314 -11.24609375 167.09765625 C-10.47064713 167.0962413 -9.6952005 167.09482635 -8.89625549 167.09336853 C-6.40996506 167.08775345 -3.9237634 167.07519846 -1.4375 167.0625 C0.24413933 167.05748694 1.92578006 167.0529237 3.60742188 167.04882812 C7.73831566 167.03777913 11.86914276 167.02050445 16 167 C15.83766876 165.97854385 15.67533752 164.95708771 15.50808716 163.90467834 C14.71078203 157.46788543 14.86045998 151.00024816 14.87060547 144.52514648 C14.8692486 143.06736202 14.86746707 141.60957791 14.86529541 140.15179443 C14.86075544 136.21183255 14.86249635 132.271897 14.8656745 128.33193469 C14.86821541 124.19924015 14.86585579 120.06654778 14.86428833 115.93385315 C14.86247189 108.99634397 14.86485938 102.05884545 14.86962891 95.12133789 C14.87507266 87.11084051 14.87330593 79.10036859 14.8678025 71.08987182 C14.86325897 64.19963471 14.86262684 57.30940523 14.86524117 50.4191671 C14.86679683 46.30936743 14.86701715 42.1995797 14.86370468 38.08978081 C14.86080787 34.22624907 14.86283486 30.36275003 14.86859894 26.4992218 C14.86991675 25.08471798 14.86954911 23.6702114 14.86733627 22.25570869 C14.86458622 20.31866176 14.86865284 18.38160879 14.87301636 16.44456482 C14.87339338 15.36263068 14.87377041 14.28069654 14.87415886 13.16597652 C15.01098469 9.72364137 15.45975976 6.40045532 16 3 C15.01 3 14.02 3 13 3 C13 2.34 13 1.68 13 1 C8.71 1 4.42 1 0 1 C0 0.67 0 0.34 0 0 Z " fill="#F0FCFC" transform="translate(258,531)"/>
<path d="M0 0 C13.53 0 27.06 0 41 0 C41 0.33 41 0.66 41 1 C39.28115601 1.03758423 39.28115601 1.03758423 37.52758789 1.07592773 C33.29146402 1.16983106 29.05551072 1.27009275 24.81958008 1.37231445 C22.98335753 1.4157282 21.14709292 1.45739839 19.31079102 1.49731445 C16.67711689 1.55486169 14.04365579 1.61859998 11.41015625 1.68359375 C10.58411392 1.70030624 9.75807159 1.71701874 8.90699768 1.73423767 C5.14523247 1.47807433 5.14523247 1.47807433 2 3 C1.90311269 5.11360317 1.87813158 7.2305067 1.87974548 9.34632874 C1.87889106 10.01688575 1.87803663 10.68744276 1.87715632 11.37831968 C1.87549963 13.64164398 1.88102593 15.90489534 1.88647461 18.16821289 C1.88675647 19.78410338 1.88659878 21.39999399 1.8860321 23.0158844 C1.88574407 27.4165224 1.89164171 31.81713339 1.89860606 36.21776509 C1.90483866 40.8115521 1.90544332 45.40533966 1.90663147 49.99913025 C1.90974506 58.70434771 1.91795883 67.40955268 1.92798096 76.11476463 C1.93914123 86.02269918 1.94465233 95.93063431 1.94967639 105.83857358 C1.96014142 126.22572289 1.97794179 146.61286022 2 167 C15.365 167.495 15.365 167.495 29 168 C29 134.01 29 100.02 29 65 C31 67 31 67 31.23047829 68.83906746 C31.22126036 69.58940695 31.21204243 70.33974644 31.20254517 71.11282349 C31.19688034 71.97381653 31.19121552 72.83480957 31.18537903 73.72189331 C31.16056709 75.14177048 31.16056709 75.14177048 31.13525391 76.59033203 C31.12579239 77.58548828 31.11633087 78.58064453 31.10658264 79.60595703 C31.07281091 82.90675868 31.02472125 86.20719194 30.9765625 89.5078125 C30.95040509 91.79180936 30.92513731 94.07581657 30.90072632 96.35983276 C30.83398027 102.38023949 30.75510803 108.40042942 30.67376709 114.4206543 C30.59293969 120.56029927 30.52350194 126.70007167 30.453125 132.83984375 C30.31327294 144.89338888 30.159567 156.94669972 30 169 C20.1 169 10.2 169 0 169 C0 113.23 0 57.46 0 0 Z " fill="#BEDEDF" transform="translate(109,532)"/>
<path d="M0 0 C0.99 0.33 1.98 0.66 3 1 C3.76785989 7.10454306 4.13744549 13.02764544 4.09765625 19.17578125 C4.09619598 20.04355698 4.09473572 20.9113327 4.0932312 21.80540466 C4.08945277 23.67142313 4.08336591 25.53743811 4.07516479 27.40344238 C4.06232247 30.35327881 4.05586665 33.30306994 4.05102539 36.25292969 C4.03964845 42.50197366 4.02036877 48.75097973 4 55 C3.9764176 62.2704541 3.95605423 69.54088763 3.94406128 76.81137085 C3.93755885 79.72364097 3.92505801 82.63584697 3.91235352 85.5480957 C3.90872399 87.31852156 3.90537189 89.08894801 3.90234375 90.859375 C3.89717743 91.67385605 3.89201111 92.4883371 3.88668823 93.32749939 C3.88650739 95.21871013 3.93759343 97.10981919 4 99 C5.15668501 100.38421065 5.15668501 100.38421065 8.32641602 100.11352539 C9.80225556 100.11336629 11.27810069 100.10767314 12.75390625 100.09765625 C13.52935287 100.0962413 14.3047995 100.09482635 15.10374451 100.09336853 C17.59003494 100.08775345 20.0762366 100.07519846 22.5625 100.0625 C24.24413933 100.05748694 25.92578006 100.0529237 27.60742188 100.04882812 C31.73831566 100.03777913 35.86914276 100.02050445 40 100 C40.33 99.34 40.66 98.68 41 98 C41 99.65 41 101.3 41 103 C27.8 103 14.6 103 1 103 C0.67 69.01 0.34 35.02 0 0 Z " fill="#C1DADB" transform="translate(234,598)"/>
<path d="M0 0 C2 2 2 2 2.24609566 3.97962379 C2.24425207 4.79633238 2.24240849 5.61304096 2.24050903 6.45449829 C2.24325836 7.39121872 2.24600769 8.32793915 2.24884033 9.29304504 C2.24164978 10.32378647 2.23445923 11.35452789 2.22705078 12.41650391 C2.22734283 13.49944229 2.22763489 14.58238068 2.22793579 15.69813538 C2.22653828 19.29102488 2.21095718 22.88370906 2.1953125 26.4765625 C2.19158387 28.96235033 2.18873619 31.44813962 2.18673706 33.93392944 C2.17987126 39.81649086 2.16409547 45.69897602 2.14403808 51.58150613 C2.11950986 58.93453258 2.10875255 66.28756813 2.09765625 73.640625 C2.07618531 86.76045437 2.04241768 99.8802225 2 113 C-0.0828212 109.87576821 -0.25416901 109.15241785 -0.28520203 105.59729004 C-0.29781067 104.69718704 -0.31041931 103.79708405 -0.32341003 102.8697052 C-0.32714127 101.88467514 -0.3308725 100.89964508 -0.3347168 99.88476562 C-0.34636871 98.84551437 -0.35802063 97.80626312 -0.37002563 96.73551941 C-0.40607818 93.29244613 -0.42789689 89.84944363 -0.44921875 86.40625 C-0.47046356 84.01875169 -0.49243033 81.63125971 -0.51509094 79.24377441 C-0.5605303 74.23692612 -0.5993126 69.23008505 -0.63305664 64.22314453 C-0.67660024 57.7966999 -0.73332467 51.37045784 -0.7946043 44.94416046 C-0.8407349 40.01323496 -0.88155015 35.08227735 -0.92057228 30.15129089 C-0.93965592 27.78133598 -0.96001818 25.41139102 -0.98166466 23.04145813 C-1.01075944 19.73272996 -1.03310638 16.4240263 -1.0534668 13.11523438 C-1.06327072 12.13020432 -1.07307465 11.14517426 -1.08317566 10.1302948 C-1.08732483 9.2301918 -1.091474 8.33008881 -1.0957489 7.40270996 C-1.1014474 6.620317 -1.1071459 5.83792404 -1.11301708 5.0318222 C-1 3 -1 3 0 0 Z " fill="#3B696D" transform="translate(493,587)"/>
<path d="M0 0 C13.86 0 27.72 0 42 0 C42 0.33 42 0.66 42 1 C28.47 1 14.94 1 1 1 C1.10797124 18.92392064 1.21996433 36.84780073 1.33933926 54.77164841 C1.39463647 63.09384511 1.44811273 71.4160461 1.49731445 79.73828125 C1.54019918 86.99124665 1.586488 94.24418093 1.63687855 101.49709821 C1.66344492 105.33806961 1.68829713 109.17903498 1.70907402 113.02004242 C1.72868077 116.63478894 1.75283658 120.24947643 1.78049088 123.86417007 C1.79430001 125.8243129 1.80327722 127.7844879 1.81211853 129.74465942 C1.82190735 130.91131134 1.83169617 132.07796326 1.84178162 133.27996826 C1.84823417 134.29394054 1.85468672 135.30791283 1.8613348 136.35261154 C1.98548029 138.72279042 2.32375272 140.73370927 3 143 C1.68 143.33 0.36 143.66 -1 144 C-0.67 96.48 -0.34 48.96 0 0 Z " fill="#074848" transform="translate(539,557)"/>
<path d="M0 0 C0.87914062 -0.0007251 1.75828125 -0.0014502 2.6640625 -0.00219727 C16.06698264 -0.00097615 29.25337803 0.47807149 42.5625 2.1875 C42.5625 2.5175 42.5625 2.8475 42.5625 3.1875 C38.13616268 4.09145849 34.31255486 4.15985645 29.8203125 3.76171875 C21.02432261 3.06749383 12.25723274 2.99184826 3.4375 3 C2.62978149 2.9992749 1.82206299 2.9985498 0.98986816 2.99780273 C-10.17746451 2.99890683 -21.17092202 3.37144817 -32.265625 4.75 C-36.02501565 5.21149271 -39.70007241 5.23314331 -43.48339844 5.125 C-45.65514832 5.10130558 -45.65514832 5.10130558 -48.4375 6.1875 C-50.625 5.25 -50.625 5.25 -52.4375 4.1875 C-49.37587063 3.70215696 -46.31336396 3.22417081 -43.25 2.75 C-42.40501953 2.61529297 -41.56003906 2.48058594 -40.68945312 2.34179688 C-27.14469396 0.26189004 -13.67165458 -0.01149737 0 0 Z " fill="#3A696B" transform="translate(334.4375,81.8125)"/>
<path d="M0 0 C2.12508244 3.18762365 2.5020163 5.26512223 3 9 C2.34 9 1.68 9 1 9 C1.16265854 9.64857468 1.32531708 10.29714935 1.49290466 10.96537781 C2.14001683 14.83790594 2.13120946 18.6409458 2.11352539 22.55395508 C2.11367142 23.40324585 2.11381744 24.25253662 2.1139679 25.12756348 C2.11327319 27.92491237 2.10550149 30.72219404 2.09765625 33.51953125 C2.0957905 35.4629462 2.09436734 37.40636163 2.09336853 39.34977722 C2.08955571 44.45760401 2.07973597 49.56540224 2.06866455 54.67321777 C2.05842387 59.88826104 2.05386522 65.10330894 2.04882812 70.31835938 C2.0381126 80.54558545 2.02105101 90.77279035 2 101 C1.34 100.67 0.68 100.34 0 100 C0 67 0 34 0 0 Z " fill="#0C4748" transform="translate(139,599)"/>
<path d="M0 0 C0.66 0 1.32 0 2 0 C1.34 4.29 0.68 8.58 0 13 C-20.46 13 -40.92 13 -62 13 C-61.67 12.34 -61.34 11.68 -61 11 C-41.86 11 -22.72 11 -3 11 C-2.67 8.69 -2.34 6.38 -2 4 C-0.9375 1.5625 -0.9375 1.5625 0 0 Z " fill="#E5FCFD" transform="translate(250,432)"/>
<path d="M0 0 C0.33 0 0.66 0 1 0 C1.13794954 7.06608191 0.74805717 13.97360585 0 21 C-0.99 21 -1.98 21 -3 21 C-3 23.97 -3 26.94 -3 30 C-3.66 30 -4.32 30 -5 30 C-5 28.35 -5 26.7 -5 25 C-5.99 24.67 -6.98 24.34 -8 24 C-5.69356492 15.86184696 -2.89571216 7.94317882 0 0 Z " fill="#0E4F54" transform="translate(234,599)"/>
<path d="M0 0 C1.361594 0.01495658 2.72313152 0.03563454 4.08457947 0.06056213 C5.19670555 0.07497345 5.19670555 0.07497345 6.33129883 0.0896759 C8.7933417 0.12277967 11.25521334 0.16306824 13.71714783 0.2033844 C15.41965116 0.22767442 17.12216091 0.25151852 18.82467651 0.27493286 C23.31448147 0.33788514 27.8041734 0.40691998 32.29386902 0.47718811 C36.87175837 0.54777119 41.44972812 0.61264806 46.0276947 0.67799377 C55.01671533 0.80714964 64.00562695 0.94272636 72.99449158 1.08229065 C72.99449158 1.41229065 72.99449158 1.74229065 72.99449158 2.08229065 C48.24449158 2.08229065 23.49449158 2.08229065 -2.00550842 2.08229065 C-1.67550842 4.06229065 -1.34550842 6.04229065 -1.00550842 8.08229065 C-0.80271455 10.81764989 -0.8675973 13.32406827 -1.00550842 16.08229065 C-1.66550842 16.74229065 -2.32550842 17.40229065 -3.00550842 18.08229065 C-3.19935021 15.27009359 -3.38587445 12.45774869 -3.56800842 9.64479065 C-3.62408264 8.84234924 -3.68015686 8.03990784 -3.7379303 7.21315002 C-3.86713792 5.17166954 -3.94063573 3.12682696 -4.00550842 1.08229065 C-3.00550842 0.08229065 -3.00550842 0.08229065 0 0 Z " fill="#1B5454" transform="translate(316.00550842285156,529.9177093505859)"/>
<path d="M0 0 C8.58 0 17.16 0 26 0 C24.7290827 3.8127519 23.66918099 6.90625009 21.875 10.375 C21.52179688 11.06335938 21.16859375 11.75171875 20.8046875 12.4609375 C20.53914063 12.96882813 20.27359375 13.47671875 20 14 C19.34 13.67 18.68 13.34 18 13 C18.66 9.04 19.32 5.08 20 1 C13.4 1 6.8 1 0 1 C0 0.67 0 0.34 0 0 Z " fill="#174E53" transform="translate(192,384)"/>
<path d="M0 0 C1.32 0 2.64 0 4 0 C3.67435562 0.56237366 3.34871124 1.12474731 3.01319885 1.7041626 C1.8819687 4.26745064 1.7634514 5.94512252 1.78881836 8.73339844 C1.79388649 10.13570709 1.79388649 10.13570709 1.79905701 11.56634521 C1.81251663 12.57054504 1.82597626 13.57474487 1.83984375 14.609375 C1.84504532 15.65015198 1.85024689 16.69092896 1.85560608 17.76324463 C1.87341529 21.09230503 1.90455684 24.42105761 1.9375 27.75 C1.96521028 31.06463101 1.98994912 34.37921443 2.00868225 37.69390869 C2.02083467 39.75526946 2.03833291 41.81660789 2.06199646 43.87786865 C2.09976976 49.35787991 1.81758056 54.57937281 1 60 C0.67 60 0.34 60 0 60 C0 40.2 0 20.4 0 0 Z " fill="#0C4747" transform="translate(360,557)"/>
<path d="M0 0 C0.33 0 0.66 0 1 0 C0.14091023 8.04420422 -1.54426017 15.88514195 -3.18359375 23.80078125 C-4.35381816 29.52726403 -5.37921858 35.18722848 -6 41 C-6.33 41 -6.66 41 -7 41 C-7.24857681 21.3348127 -7.24857681 21.3348127 -3.76171875 14.00390625 C-2.44508277 10.54014083 -1.99643395 6.90686421 -1.4296875 3.2578125 C-1 1 -1 1 0 0 Z " fill="#1F5056" transform="translate(169,183)"/>
<path d="M0 0 C1.32 1.32 2.64 2.64 4 4 C3.57847656 5.03640625 3.15695313 6.0728125 2.72265625 7.140625 C2.16913284 8.51036091 1.61575506 9.88015568 1.0625 11.25 C0.78470703 11.93191406 0.50691406 12.61382813 0.22070312 13.31640625 C-1.06975756 16.51923638 -2.21800044 19.63837534 -3 23 C-3.66 23 -4.32 23 -5 23 C-4.31593159 14.73717372 -4.31593159 14.73717372 -2.875 11.375 C-1.6467871 8.04127928 -2.3279609 5.4273994 -3 2 C-2.01 2 -1.02 2 0 2 C0 1.34 0 0.68 0 0 Z " fill="#144D52" transform="translate(220,553)"/>
<path d="M0 0 C0.33 0.66 0.66 1.32 1 2 C-0.26538369 2.84158536 -1.53753779 3.67299748 -2.8125 4.5 C-3.87404297 5.19609375 -3.87404297 5.19609375 -4.95703125 5.90625 C-7 7 -7 7 -10 7 C-10.33 7.99 -10.66 8.98 -11 10 C-11.99 10 -12.98 10 -14 10 C-14.33 10.66 -14.66 11.32 -15 12 C-16.71400167 12.69219298 -18.42824696 13.38379878 -20.14453125 14.0703125 C-22.98950042 15.49579179 -24.90419672 17.65015996 -27 20 C-27.66 19.67 -28.32 19.34 -29 19 C-20.49201401 10.73384306 -10.96989336 4.49019564 0 0 Z " fill="#D9EEEF" transform="translate(239,68)"/>
<path d="M0 0 C0 0.33 0 0.66 0 1 C-3.31178954 1.34064639 -6.62452037 1.67114622 -9.9375 2 C-10.86369141 2.09539062 -11.78988281 2.19078125 -12.74414062 2.2890625 C-17.18293786 2.72515486 -21.54170748 3.05063488 -26.00390625 3 C-29.89520838 2.78938737 -29.89520838 2.78938737 -33 4 C-35.1875 3.0625 -35.1875 3.0625 -37 2 C-24.36165911 -0.3133261 -12.79548129 -1.37567998 0 0 Z " fill="#2B5C5F" transform="translate(319,84)"/>
<path d="M0 0 C0.66 0.33 1.32 0.66 2 1 C0.92492371 2.29854721 -0.16043736 3.58858361 -1.25 4.875 C-1.85328125 5.59429688 -2.4565625 6.31359375 -3.078125 7.0546875 C-5 9 -5 9 -7.203125 10.0390625 C-7.79609375 10.35617187 -8.3890625 10.67328125 -9 11 C-9.165 12.155 -9.33 13.31 -9.5 14.5 C-9.665 15.655 -9.83 16.81 -10 18 C-12.03125 19.21875 -12.03125 19.21875 -14 20 C-11.84341557 11.12719549 -7.39492488 5.29834178 0 0 Z " fill="#E9F8FB" transform="translate(510,563)"/>
<path d="M0 0 C0.33 0 0.66 0 1 0 C0.19552147 14.01486273 -0.89949063 28.00574988 -2 42 C-2.33 42 -2.66 42 -3 42 C-3.22745015 38.62600624 -3.42851745 35.25092748 -3.625 31.875 C-3.68945312 30.92367188 -3.75390625 29.97234375 -3.8203125 28.9921875 C-4.11089743 23.76165868 -3.93366702 19.94476475 -2 15 C-1.74917147 12.9442404 -1.56064956 10.87984049 -1.4375 8.8125 C-1.23833676 5.58117809 -1.02703996 3.08111988 0 0 Z " fill="#1F5356" transform="translate(160,226)"/>
<path d="M0 0 C2.21964141 2.21964141 2.84038634 3.80371901 3.9453125 6.71875 C4.29980469 7.65074219 4.65429688 8.58273437 5.01953125 9.54296875 C5.38433594 10.51878906 5.74914062 11.49460937 6.125 12.5 C6.49753906 13.47582031 6.87007812 14.45164062 7.25390625 15.45703125 C10 22.72965316 10 22.72965316 10 25 C9.34 25 8.68 25 8 25 C7.67 23.68 7.34 22.36 7 21 C6.34 21 5.68 21 5 21 C4.731875 19.783125 4.46375 18.56625 4.1875 17.3125 C3.51830348 14.56349845 2.94050248 12.90846535 1.375 10.5 C-0.61170726 6.88780499 -0.20776208 4.08598749 0 0 Z " fill="#DCEEF0" transform="translate(165,572)"/>
<path d="M0 0 C16.17 0 32.34 0 49 0 C45.89835777 2.06776149 45.26493493 2.24785759 41.75976562 2.22705078 C40.48329163 2.22682419 40.48329163 2.22682419 39.18103027 2.22659302 C38.26535278 2.21627045 37.34967529 2.20594788 36.40625 2.1953125 C35.46317993 2.1924826 34.52010986 2.18965271 33.54846191 2.18673706 C30.53217922 2.17553815 27.51619286 2.15045108 24.5 2.125 C22.46745224 2.11496832 20.43489978 2.1058428 18.40234375 2.09765625 C13.92581792 2.07798013 9.44944484 2.04955066 4.97302246 2.01345825 C3.3153808 2.00215125 1.65768022 2 0 2 C0 1.34 0 0.68 0 0 Z " fill="#0A4445" transform="translate(404,700)"/>
<path d="M0 0 C1.32 0.33 2.64 0.66 4 1 C2.730447 1.64834654 1.45930294 2.29357815 0.1875 2.9375 C-0.52019531 3.29714844 -1.22789062 3.65679687 -1.95703125 4.02734375 C-6.09271311 5.99633951 -9.53107053 6.18660202 -14.07421875 6.31640625 C-15.09996758 6.3475779 -15.09996758 6.3475779 -16.1464386 6.37937927 C-18.3266921 6.44466154 -20.50706405 6.50366017 -22.6875 6.5625 C-24.16732986 6.60570553 -25.64714783 6.64932047 -27.12695312 6.69335938 C-30.75117622 6.80032083 -34.37553189 6.90164823 -38 7 C-38 6.34 -38 5.68 -38 5 C-36.70582153 4.970271 -36.70582153 4.970271 -35.38549805 4.93994141 C-32.18163044 4.86180356 -28.97814106 4.77510918 -25.7746582 4.68261719 C-24.38868093 4.6443565 -23.00260535 4.60949844 -21.61645508 4.578125 C-19.6229836 4.53241301 -17.62983086 4.47341075 -15.63671875 4.4140625 C-14.43748779 4.3826416 -13.23825684 4.3512207 -12.00268555 4.31884766 C-8.82117294 4.21570506 -8.82117294 4.21570506 -6 2 C-2.8125 1.875 -2.8125 1.875 0 2 C0 1.34 0 0.68 0 0 Z " fill="#D8EAEC" transform="translate(490,378)"/>
<path d="M0 0 C-3.39425555 7.43424753 -9.27012174 12.60497746 -16 17 C-16.33 16.01 -16.66 15.02 -17 14 C-15.35 13.34 -13.7 12.68 -12 12 C-12 11.34 -12 10.68 -12 10 C-11.34 10 -10.68 10 -10 10 C-10 9.34 -10 8.68 -10 8 C-9.01 7.34 -8.02 6.68 -7 6 C-6.67 5.154375 -6.34 4.30875 -6 3.4375 C-5.67 2.633125 -5.34 1.82875 -5 1 C-2 0 -2 0 0 0 Z " fill="#E4F6F8" transform="translate(433,601)"/>
<path d="M0 0 C0.66 0.33 1.32 0.66 2 1 C1.54548816 2.73017508 1.08621143 4.45909877 0.625 6.1875 C0.36976563 7.15042969 0.11453125 8.11335937 -0.1484375 9.10546875 C-0.94766296 11.82210207 -1.9031362 14.39137175 -3 17 C-5.6855594 14.3144406 -6.06049974 11.62378672 -7 8 C-6.01 8.33 -5.02 8.66 -4 9 C-3.67 7.35 -3.34 5.7 -3 4 C-2.34 4 -1.68 4 -1 4 C-0.67 2.68 -0.34 1.36 0 0 Z " fill="#154B50" transform="translate(197,626)"/>
<path d="M0 0 C1.9375 0.3125 1.9375 0.3125 4 1 C4.33 1.99 4.66 2.98 5 4 C4.67 4.66 4.34 5.32 4 6 C4.66 6 5.32 6 6 6 C8.09350689 9.4019487 8.17942163 12.05272412 8 16 C7.34 16.33 6.68 16.66 6 17 C4.99580363 14.5433053 3.99649499 12.08481647 3 9.625 C2.71382812 8.92632813 2.42765625 8.22765625 2.1328125 7.5078125 C0 2.2265625 0 2.2265625 0 0 Z " fill="#154F52" transform="translate(175,596)"/>
<path d="M0 0 C0.66 0 1.32 0 2 0 C-0.05213462 7.54117764 -2.50245709 14.99337113 -6 22 C-6.66 22.33 -7.32 22.66 -8 23 C-6.24102978 14.80577287 -3.73689368 7.50332803 0 0 Z " fill="#DBEEF0" transform="translate(224,555)"/>
<path d="M0 0 C1.76923828 0.01353516 1.76923828 0.01353516 3.57421875 0.02734375 C4.47785156 0.03894531 5.38148438 0.05054688 6.3125 0.0625 C6.3125 0.3925 6.3125 0.7225 6.3125 1.0625 C5.13494141 1.33513672 5.13494141 1.33513672 3.93359375 1.61328125 C-3.07524756 3.2498123 -3.07524756 3.2498123 -9.75 5.875 C-11.2040625 6.4628125 -11.2040625 6.4628125 -12.6875 7.0625 C-13.6775 6.4025 -14.6675 5.7425 -15.6875 5.0625 C-14.6975 4.7325 -13.7075 4.4025 -12.6875 4.0625 C-12.0275 4.3925 -11.3675 4.7225 -10.6875 5.0625 C-10.5328125 4.1034375 -10.5328125 4.1034375 -10.375 3.125 C-10.148125 2.444375 -9.92125 1.76375 -9.6875 1.0625 C-6.26517028 -0.07827657 -3.60076783 -0.03565117 0 0 Z " fill="#235253" transform="translate(345.6875,556.9375)"/>
<path d="M0 0 C0 0.66 0 1.32 0 2 C-0.99257813 2.02578125 -1.98515625 2.0515625 -3.0078125 2.078125 C-12.58564927 2.43966463 -20.86352598 3.93071576 -30 7 C-29.625 5.0625 -29.625 5.0625 -29 3 C-26.49072842 1.74536421 -24.46014874 1.69022084 -21.66015625 1.46484375 C-20.0659082 1.33432617 -20.0659082 1.33432617 -18.43945312 1.20117188 C-17.32505859 1.11416016 -16.21066406 1.02714844 -15.0625 0.9375 C-13.95197266 0.84662109 -12.84144531 0.75574219 -11.69726562 0.66210938 C-3.4781485 0 -3.4781485 0 0 0 Z " fill="#154B4D" transform="translate(274,529)"/>
<path d="M0 0 C0.33 0 0.66 0 1 0 C1.53449652 7.24539726 0.71607548 11.72912263 -3 18 C-3.99 18 -4.98 18 -6 18 C-4.23536928 11.89262558 -2.30442525 5.92566493 0 0 Z " fill="#26575A" transform="translate(220,638)"/>
<path d="M0 0 C0.33 0 0.66 0 1 0 C1.38317738 6.25856383 0.75827876 10.37311133 -2 16 C-2.37308631 17.32276056 -2.73046415 18.65232077 -3 20 C-3.99 20 -4.98 20 -6 20 C-4.22089072 13.24947898 -2.29561809 6.59379663 0 0 Z " fill="#DDF1F3" transform="translate(205,608)"/>
<path d="M0 0 C1 2 1 2 0.25 4.9375 C-1.57815846 9.41648822 -1.57815846 9.41648822 -4 11 C-5.9375 10.625 -5.9375 10.625 -8 10 C-10.18703385 10.37907282 -10.18703385 10.37907282 -12 11 C-11.236875 10.401875 -10.47375 9.80375 -9.6875 9.1875 C-7.08664741 7.15995888 -7.08664741 7.15995888 -5.3125 5.25 C-4 4 -4 4 -2 4 C-1.34 2.68 -0.68 1.36 0 0 Z " fill="#DCEDEE" transform="translate(391,604)"/>
<path d="M0 0 C0.66 0.33 1.32 0.66 2 1 C-0.50318993 6.37722282 -3.03452761 10.59391956 -7 15 C-7.6875 13.25 -7.6875 13.25 -8 11 C-6.6875 8.75 -6.6875 8.75 -5 7 C-4.34 7 -3.68 7 -3 7 C-2.814375 5.824375 -2.814375 5.824375 -2.625 4.625 C-2 2 -2 2 0 0 Z " fill="#E5F7F8" transform="translate(504,361)"/>
<path d="M0 0 C2.65045426 2.53521712 3.93122197 3.90275049 4.16796875 7.6796875 C4.17441406 8.73414063 4.18085938 9.78859375 4.1875 10.875 C4.20167969 11.92429687 4.21585937 12.97359375 4.23046875 14.0546875 C4.00504937 16.93547071 3.48964317 18.56240208 2 21 C1.34 21 0.68 21 0 21 C0.350625 20.195625 0.70125 19.39125 1.0625 18.5625 C2.24699726 14.0614104 1.74376658 10.53535927 1 6 C0.814375 4.824375 0.62875 3.64875 0.4375 2.4375 C0.293125 1.633125 0.14875 0.82875 0 0 Z " fill="#1F5055" transform="translate(436,330)"/>
<path d="M0 0 C4.35509428 4.93577352 6.39062323 9.35940515 6 16 C5.01 16.33 4.02 16.66 3 17 C2.67 13.04 2.34 9.08 2 5 C1.34 5 0.68 5 0 5 C0 3.35 0 1.7 0 0 Z " fill="#1E5454" transform="translate(392,564)"/>
<path d="M0 0 C0.66 0.33 1.32 0.66 2 1 C0 4 0 4 -2.625 4.6875 C-8.19034919 5.20281011 -13.52635619 5.36841095 -19 4 C-18.67 3.34 -18.34 2.68 -18 2 C-17.03578125 2.02320313 -16.0715625 2.04640625 -15.078125 2.0703125 C-13.81484375 2.08835937 -12.5515625 2.10640625 -11.25 2.125 C-9.37054688 2.15980469 -9.37054688 2.15980469 -7.453125 2.1953125 C-4.20043809 2.011337 -2.7566678 1.5329134 0 0 Z " fill="#D6EBED" transform="translate(432,356)"/>
<path d="M0 0 C1.01126953 0.49113281 1.01126953 0.49113281 2.04296875 0.9921875 C5.61501454 2.20960865 8.54711647 2.195381 12.3125 2.125 C13.56675781 2.10695313 14.82101563 2.08890625 16.11328125 2.0703125 C17.06589844 2.04710937 18.01851563 2.02390625 19 2 C19 2.66 19 3.32 19 4 C14.21881868 5.98244103 11.04083727 6.17019437 6 5 C2.5625 3.4375 2.5625 3.4375 0 2 C0 1.34 0 0.68 0 0 Z " fill="#D4EBEC" transform="translate(238,356)"/>
<path d="M0 0 C0 0.66 0 1.32 0 2 C-0.639375 1.835 -1.27875 1.67 -1.9375 1.5 C-9.92239341 0.19634393 -14.96086078 0.90450082 -22 5 C-22.33 4.01 -22.66 3.02 -23 2 C-14.96968286 -2.61743236 -8.60244145 -2.40948013 0 0 Z " fill="#E1F5F6" transform="translate(431,323)"/>
<path d="M0 0 C0.66 0.33 1.32 0.66 2 1 C0.35 5.62 -1.3 10.24 -3 15 C-5.4294516 11.3558226 -5.16179575 9.28758728 -5 5 C-3.68 4.67 -2.36 4.34 -1 4 C-0.67 2.68 -0.34 1.36 0 0 Z " fill="#E6F5F5" transform="translate(206,673)"/>
<path d="M0 0 C0.66 0 1.32 0 2 0 C1.36757331 4.72502701 0.08186437 8.90570197 -1.5625 13.375 C-1.79646484 14.01566406 -2.03042969 14.65632812 -2.27148438 15.31640625 C-2.84299619 16.8793161 -3.42084229 18.43990727 -4 20 C-6.09635849 12.62273844 -3.2049721 6.57391951 0 0 Z " fill="#1F4E51" transform="translate(185,128)"/>
<path d="M0 0 C2.95749791 3.46741134 5.07848152 6.86873527 7 11 C5.02 11 3.04 11 1 11 C-1.42857143 3.57142857 -1.42857143 3.57142857 0 0 Z " fill="#E2F0F1" transform="translate(444,685)"/>
<path d="M0 0 C2.23915618 3.35873427 3.69032729 6.8389434 5.1875 10.5625 C5.47302734 11.24763672 5.75855469 11.93277344 6.05273438 12.63867188 C6.76394161 14.4019813 7.38874045 16.19960071 8 18 C7.67 18.66 7.34 19.32 7 20 C4.0148017 17.59258201 3.0738596 16.4062278 2.375 12.5625 C2.25125 11.386875 2.1275 10.21125 2 9 C1.3400321 7.33066942 0.67441131 5.6635479 0 4 C0 2.68 0 1.36 0 0 Z " fill="#D8EDF0" transform="translate(176,600)"/>
<path d="M0 0 C0.76849965 2.25542675 1.15628879 3.53906176 0.37915039 5.83105469 C0.03875732 6.43852539 -0.30163574 7.04599609 -0.65234375 7.671875 C-1.01650391 8.33574219 -1.38066406 8.99960937 -1.75585938 9.68359375 C-2.14580078 10.36550781 -2.53574219 11.04742187 -2.9375 11.75 C-3.32357422 12.44738281 -3.70964844 13.14476562 -4.10742188 13.86328125 C-5.06073637 15.5816012 -6.02895346 17.29163804 -7 19 C-7.66 19 -8.32 19 -9 19 C-7.6077541 14.37324343 -5.70479016 10.35313769 -3.375 6.125 C-2.74335938 4.97257812 -2.11171875 3.82015625 -1.4609375 2.6328125 C-0.97882813 1.76398438 -0.49671875 0.89515625 0 0 Z " fill="#DFF6F7" transform="translate(208,404)"/>
<path d="M0 0 C2.93280794 2.47902104 3.93871822 4.969262 5.1875 8.5625 C5.53167969 9.53316406 5.87585938 10.50382813 6.23046875 11.50390625 C7 14 7 14 7 16 C6.34 16 5.68 16 5 16 C4.15488176 14.27656245 3.32436646 12.54595947 2.5 10.8125 C2.0359375 9.84957031 1.571875 8.88664063 1.09375 7.89453125 C0.00407079 5.01077307 -0.22277524 3.04645139 0 0 Z " fill="#2B5C60" transform="translate(143,611)"/>
<path d="M0 0 C0.66 0 1.32 0 2 0 C-1.07517084 11.52164009 -1.07517084 11.52164009 -3 17 C-3.33 17 -3.66 17 -4 17 C-3.03644647 6.44191344 -3.03644647 6.44191344 -2 2 C-1.34 2 -0.68 2 0 2 C0 1.34 0 0.68 0 0 Z " fill="#E4F6F8" transform="translate(212,137)"/>
<path d="M0 0 C0.66 0 1.32 0 2 0 C1.34 4.29 0.68 8.58 0 13 C-1.65 13 -3.3 13 -5 13 C-4.34 12.67 -3.68 12.34 -3 12 C-2.73859704 10.00680239 -2.48269576 8.01225527 -2.28515625 6.01171875 C-1.95814454 3.70471832 -1.23288277 1.97261243 0 0 Z " fill="#DFF5F6" transform="translate(250,432)"/>
<path d="M0 0 C-0.66 1.98 -1.32 3.96 -2 6 C-4.97 5.01 -7.94 4.02 -11 3 C-11 2.34 -11 1.68 -11 1 C-7.27569643 0.30710631 -3.78916254 -0.11144596 0 0 Z " fill="#134D50" transform="translate(440,65)"/>
<path d="M0 0 C0.66 0.66 1.32 1.32 2 2 C2.680625 2.598125 3.36125 3.19625 4.0625 3.8125 C6.25412832 6.28691907 6.82740561 7.72070659 7 11 C6.34 11.66 5.68 12.32 5 13 C4.76925781 12.46890625 4.53851563 11.9378125 4.30078125 11.390625 C2.18061443 6.79832691 0.32232724 3.88155149 -4 1 C-2.125 0.375 -2.125 0.375 0 0 Z " fill="#DEF3F3" transform="translate(262,324)"/>
<path d="M0 0 C0.33 0 0.66 0 1 0 C1.71961582 8.68679101 2.14368684 17.28299826 2 26 C1.67 26 1.34 26 1 26 C1 23.36 1 20.72 1 18 C0.34 18 -0.32 18 -1 18 C-0.505 9.09 -0.505 9.09 0 0 Z " fill="#0C4948" transform="translate(156,310)"/>
<path d="M0 0 C2.475 0.495 2.475 0.495 5 1 C5 1.66 5 2.32 5 3 C7.31 3 9.62 3 12 3 C12.33 4.32 12.66 5.64 13 7 C10.76953125 7.7109375 10.76953125 7.7109375 8 8 C5.76171875 6.6015625 5.76171875 6.6015625 3.6875 4.625 C2.99011719 3.97789062 2.29273438 3.33078125 1.57421875 2.6640625 C0 1 0 1 0 0 Z " fill="#135154" transform="translate(202,286)"/>
<path d="M0 0 C0.66 0 1.32 0 2 0 C5.10931683 6.8945721 6.35060249 11.34658587 5 19 C4.67 19 4.34 19 4 19 C2.68 12.73 1.36 6.46 0 0 Z " fill="#D0E8E7" transform="translate(465,164)"/>
<path d="M0 0 C4.16486198 -0.30017023 6.65015727 0.54675054 10.3125 2.5 C11.19550781 2.9640625 12.07851563 3.428125 12.98828125 3.90625 C13.65214844 4.2671875 14.31601562 4.628125 15 5 C14.67 5.66 14.34 6.32 14 7 C9.05 5.35 4.1 3.7 -1 2 C-0.67 1.34 -0.34 0.68 0 0 Z " fill="#245658" transform="translate(405,532)"/>
<path d="M0 0 C0.33 0 0.66 0 1 0 C1.33 2.97 1.66 5.94 2 9 C1.01 9.33 0.02 9.66 -1 10 C-1.73323796 12.01508358 -1.73323796 12.01508358 -2 14 C-2.66 13.67 -3.32 13.34 -4 13 C-3.67 10.69 -3.34 8.38 -3 6 C-2.34 6 -1.68 6 -1 6 C-0.67 4.02 -0.34 2.04 0 0 Z " fill="#145258" transform="translate(413,402)"/>
<path d="M0 0 C0.99 0.33 1.98 0.66 3 1 C1.75160501 2.105981 0.50120766 3.20970201 -0.75 4.3125 C-1.44609375 4.92738281 -2.1421875 5.54226562 -2.859375 6.17578125 C-4.85114506 7.87314734 -6.88898915 9.45477809 -9 11 C-9 8.875 -9 8.875 -8 6 C-5.57318722 3.62760006 -3.0190803 1.56240343 0 0 Z " fill="#D8EDEE" transform="translate(236,103)"/>
<path d="M0 0 C2.93912216 0.44940706 5.87598754 0.90910023 8.8125 1.375 C10.06256836 1.56449219 10.06256836 1.56449219 11.33789062 1.7578125 C12.14033203 1.88671875 12.94277344 2.015625 13.76953125 2.1484375 C14.50792236 2.26364746 15.24631348 2.37885742 16.00708008 2.49755859 C18 3 18 3 21 5 C17.56469564 6.18458771 15.58851075 5.79259109 12.1875 4.625 C8.08910396 3.29529817 4.27732263 2.46492637 0 2 C0 1.34 0 0.68 0 0 Z " fill="#DBF0F1" transform="translate(392,58)"/>
<path d="M0 0 C0.66 0.66 1.32 1.32 2 2 C2.66 1.34 3.32 0.68 4 0 C4.125 6.75 4.125 6.75 3 9 C1.68 9 0.36 9 -1 9 C-1.625 6.1875 -1.625 6.1875 -2 3 C-1.34 2.01 -0.68 1.02 0 0 Z " fill="#135256" transform="translate(394,585)"/>
<path d="M0 0 C0.90105469 0.02707031 1.80210937 0.05414062 2.73046875 0.08203125 C3.76107422 0.13423828 3.76107422 0.13423828 4.8125 0.1875 C2.40445432 2.59554568 0.39046225 3.19518759 -2.8125 4.3125 C-3.81539062 4.66570313 -4.81828125 5.01890625 -5.8515625 5.3828125 C-7.00785156 5.78113281 -7.00785156 5.78113281 -8.1875 6.1875 C-8.1875 3.1875 -8.1875 3.1875 -7.01171875 1.51171875 C-4.56536496 -0.26411409 -2.9895229 -0.11647492 0 0 Z " fill="#225354" transform="translate(519.1875,556.8125)"/>
<path d="M0 0 C0.66 0 1.32 0 2 0 C2.36664185 1.87260054 2.71774366 3.74824693 3.0625 5.625 C3.25972656 6.66914063 3.45695312 7.71328125 3.66015625 8.7890625 C4.01108946 12.10477629 3.6969615 14.75401145 3 18 C2.67 18 2.34 18 2 18 C1.34 12.06 0.68 6.12 0 0 Z " fill="#D9F1F2" transform="translate(474,208)"/>
<path d="M0 0 C0.66 0.33 1.32 0.66 2 1 C1.67257812 1.51046875 1.34515625 2.0209375 1.0078125 2.546875 C-0.35648384 5.86772037 -0.1912273 8.67372568 -0.125 12.25 C-0.10695313 13.51328125 -0.08890625 14.7765625 -0.0703125 16.078125 C-0.04710937 17.04234375 -0.02390625 18.0065625 0 19 C-0.66 18.67 -1.32 18.34 -2 18 C-2.3961403 15.50401824 -2.65139481 13.137307 -2.8125 10.625 C-2.87630859 9.93921875 -2.94011719 9.2534375 -3.00585938 8.546875 C-3.3562806 3.47317056 -3.3562806 3.47317056 -1.51171875 1.0234375 C-1.01285156 0.68570312 -0.51398438 0.34796875 0 0 Z " fill="#CFE5E6" transform="translate(405,330)"/>
<path d="M0 0 C1.63572653 2.96904984 2.48650988 5.67579747 3.125 9 C3.29257812 9.845625 3.46015625 10.69125 3.6328125 11.5625 C4 14 4 14 4 18 C3.34 18 2.68 18 2 18 C0.59545452 11.88019467 -0.23268915 6.28260706 0 0 Z " fill="#DDF4F5" transform="translate(503,196)"/>
<path d="M0 0 C0.33 0 0.66 0 1 0 C1.53132389 2.58157368 2.05034379 5.16461756 2.5625 7.75 C2.78969727 8.84441406 2.78969727 8.84441406 3.02148438 9.9609375 C3.74557178 13.66557073 4.09817231 16.39322322 3 20 C-0.84843669 14.22734497 -0.12280578 6.75431773 0 0 Z " fill="#305E62" transform="translate(470,186)"/>
<path d="M0 0 C0.33 0 0.66 0 1 0 C0.85833643 1.91697937 0.71150416 3.83357723 0.5625 5.75 C0.48128906 6.81734375 0.40007812 7.8846875 0.31640625 8.984375 C0.0581093 11.44616814 -0.3230473 13.63066554 -1 16 C-1.185625 16.7425 -1.37125 17.485 -1.5625 18.25 C-1.7790625 19.11625 -1.7790625 19.11625 -2 20 C-2.66 20 -3.32 20 -4 20 C-2.82144268 13.29225357 -1.52351686 6.63818061 0 0 Z " fill="#D3E9EC" transform="translate(169,188)"/>
<path d="M0 0 C2.16874252 0.50603992 3.99967627 0.99983813 6 2 C6 4.97 6 7.94 6 11 C3.13546142 7.58983503 1.65296434 4.09305456 0 0 Z " fill="#195456" transform="translate(462,402)"/>
<path d="M0 0 C0.33 0 0.66 0 1 0 C1.33 4.62 1.66 9.24 2 14 C1.01 14.66 0.02 15.32 -1 16 C-0.67 10.72 -0.34 5.44 0 0 Z " fill="#26595B" transform="translate(514,312)"/>
<path d="M0 0 C3.09592835 3.5087188 4.74194623 6.49197399 6 11 C5.01 11 4.02 11 3 11 C2.67 9.68 2.34 8.36 2 7 C1.34 7 0.68 7 0 7 C0 4.69 0 2.38 0 0 Z " fill="#1E555A" transform="translate(379,652)"/>
<path d="M0 0 C1 2 1 2 0.875 3.8125 C-0.37664187 6.94160468 -2.55301274 8.74124253 -5 11 C-5.99 10.67 -6.98 10.34 -8 10 C-5.36 6.7 -2.72 3.4 0 0 Z " fill="#DAEFEF" transform="translate(233,543)"/>
<path d="M0 0 C1.32 0.33 2.64 0.66 4 1 C2.68 3.64 1.36 6.28 0 9 C-0.99 9 -1.98 9 -3 9 C-2.01 6.03 -1.02 3.06 0 0 Z " fill="#164F4F" transform="translate(188,436)"/>
<path d="M0 0 C0.66 0.33 1.32 0.66 2 1 C1.53556732 3.16735253 1.06449935 4.8899717 -0.0625 6.8125 C-1.38497859 9.89828337 -1.12750849 12.68477932 -1 16 C-1.66 16 -2.32 16 -3 16 C-3.32712342 9.86946489 -3.39366878 5.37330889 0 0 Z " fill="#1E5051" transform="translate(234,330)"/>
<path d="M0 0 C0.33 0.99 0.66 1.98 1 3 C-0.11375 2.979375 -1.2275 2.95875 -2.375 2.9375 C-5.83215921 2.73619282 -5.83215921 2.73619282 -8 4 C-7.6875 2.0625 -7.6875 2.0625 -7 0 C-3.89953913 -1.03348696 -2.94389782 -1.17755913 0 0 Z M-10 4 C-8 5 -8 5 -8 5 Z " fill="#165355" transform="translate(273,90)"/>
<path d="M0 0 C0.66 0 1.32 0 2 0 C1.61479436 2.53910197 1.29902057 3.72751123 -0.62890625 5.484375 C-1.26699219 5.90203125 -1.90507812 6.3196875 -2.5625 6.75 C-3.20316406 7.17796875 -3.84382813 7.6059375 -4.50390625 8.046875 C-5.24447266 8.51867187 -5.24447266 8.51867187 -6 9 C-6.33 8.01 -6.66 7.02 -7 6 C-5.35 5.34 -3.7 4.68 -2 4 C-2 3.34 -2 2.68 -2 2 C-1.34 2 -0.68 2 0 2 C0 1.34 0 0.68 0 0 Z " fill="#DCEFEF" transform="translate(423,609)"/>
<path d="M0 0 C1.1171875 1.609375 1.1171875 1.609375 2 4 C1.3203125 7.015625 1.3203125 7.015625 0.125 10.25 C-0.26429688 11.32765625 -0.65359375 12.4053125 -1.0546875 13.515625 C-1.36664063 14.33546875 -1.67859375 15.1553125 -2 16 C-2.33 16 -2.66 16 -3 16 C-3.18020036 11.40489089 -2.91820582 8.17491855 -1 4 C-0.64141484 2.67323492 -0.2981424 1.34164079 0 0 Z " fill="#174B4F" transform="translate(213,577)"/>
<path d="M0 0 C1.34780093 2.69560185 0.67336458 3.742617 -0.25 6.5625 C-0.50265625 7.36816406 -0.7553125 8.17382812 -1.015625 9.00390625 C-1.34046875 9.66261719 -1.6653125 10.32132813 -2 11 C-2.99 11.33 -3.98 11.66 -5 12 C-4.54738642 10.56068883 -4.08767021 9.12361001 -3.625 7.6875 C-3.24214844 6.48673828 -3.24214844 6.48673828 -2.8515625 5.26171875 C-2 3 -2 3 0 0 Z " fill="#E0F3F5" transform="translate(501,571)"/>
<path d="M0 0 C0.66 0.99 1.32 1.98 2 3 C1.21654285 4.17219543 0.42297164 5.33763668 -0.375 6.5 C-0.81585938 7.1496875 -1.25671875 7.799375 -1.7109375 8.46875 C-2.13632812 8.9740625 -2.56171875 9.479375 -3 10 C-3.66 10 -4.32 10 -5 10 C-3.84414715 6.08788267 -2.64465038 3.1254959 0 0 Z " fill="#E2F4F3" transform="translate(325,571)"/>
<path d="M0 0 C0.33 0 0.66 0 1 0 C0.36934845 5.7809725 -0.65155132 11.3443706 -2 17 C-2.33 17 -2.66 17 -3 17 C-2.88556397 14.9160597 -2.75804453 12.83283507 -2.625 10.75 C-2.55539063 9.58984375 -2.48578125 8.4296875 -2.4140625 7.234375 C-2.03751692 4.29305666 -1.5225877 2.50050989 0 0 Z " fill="#27575A" transform="translate(169,183)"/>
<path d="M0 0 C8.0625 -0.15808824 8.0625 -0.15808824 12 1 C12.33 1.66 12.66 2.32 13 3 C13.99 3.33 14.98 3.66 16 4 C14.27014758 3.88487847 12.54111249 3.75744323 10.8125 3.625 C9.84957031 3.55539063 8.88664062 3.48578125 7.89453125 3.4140625 C4.98491062 2.99784147 2.67109226 2.20125904 0 1 C0 0.67 0 0.34 0 0 Z " fill="#D9EDEF" transform="translate(376,83)"/>
<path d="M0 0 C0.66 0 1.32 0 2 0 C2.99 3.3 3.98 6.6 5 10 C3.68 9.67 2.36 9.34 1 9 C0.67 7.68 0.34 6.36 0 5 C-0.66 5 -1.32 5 -2 5 C-1.34 3.35 -0.68 1.7 0 0 Z " fill="#175657" transform="translate(163,666)"/>
<path d="M0 0 C2.31242092 2.16323247 4.0156396 4.37647804 5.6875 7.0625 C6.12449219 7.75472656 6.56148438 8.44695313 7.01171875 9.16015625 C8 11 8 11 8 13 C5 12 5 12 3.61328125 9.78515625 C3.18402344 8.88667969 2.75476563 7.98820313 2.3125 7.0625 C1.87550781 6.16660156 1.43851562 5.27070312 0.98828125 4.34765625 C0 2 0 2 0 0 Z " fill="#D5EAEB" transform="translate(430,663)"/>
<path d="M0 0 C0.66 0 1.32 0 2 0 C3.66666667 5 5.33333333 10 7 15 C6.01 15.495 6.01 15.495 5 16 C4.16280617 13.70967689 3.3301071 11.41789043 2.5 9.125 C2.14228516 8.14853516 2.14228516 8.14853516 1.77734375 7.15234375 C0 2.2265625 0 2.2265625 0 0 Z " fill="#E5F8FA" transform="translate(146,615)"/>
<path d="M0 0 C0.78246094 -0.01417969 1.56492187 -0.02835937 2.37109375 -0.04296875 C4.5625 0.1875 4.5625 0.1875 7.5625 2.1875 C4.91791621 3.50979189 2.88488699 3.28427194 -0.0625 3.25 C-1.06539063 3.24097656 -2.06828125 3.23195313 -3.1015625 3.22265625 C-3.87242187 3.21105469 -4.64328125 3.19945312 -5.4375 3.1875 C-5.7675 2.5275 -6.0975 1.8675 -6.4375 1.1875 C-4.0978331 0.01766655 -2.60358473 0.0213759 0 0 Z " fill="#27575B" transform="translate(421.4375,322.8125)"/>
<path d="M0 0 C1.32 1.65 2.64 3.3 4 5 C3.01 6.32 2.02 7.64 1 9 C0.34 7.35 -0.32 5.7 -1 4 C-1.33 4.99 -1.66 5.98 -2 7 C-2.66 6.67 -3.32 6.34 -4 6 C-2.68 4.02 -1.36 2.04 0 0 Z " fill="#E2F1F0" transform="translate(204,95)"/>
<path d="M0 0 C0.33 0 0.66 0 1 0 C2.03590199 5.05002222 2.10251672 9.87416389 2 15 C1.67 15 1.34 15 1 15 C-0.97153141 10.07117148 -1.26582874 6.2279653 -1 1 C-0.67 0.67 -0.34 0.34 0 0 Z " fill="#BCD5D7" transform="translate(439,566)"/>
<path d="M0 0 C1.32 0.33 2.64 0.66 4 1 C-4.261959 5.59225513 -4.261959 5.59225513 -9 5 C-7.875 3.5 -7.875 3.5 -6 2 C-2.8125 1.8125 -2.8125 1.8125 0 2 C0 1.34 0 0.68 0 0 Z " fill="#E3F5F6" transform="translate(490,378)"/>
<path d="M0 0 C0.33 1.32 0.66 2.64 1 4 C0.195625 4.12375 -0.60875 4.2475 -1.4375 4.375 C-2.7059375 4.684375 -2.7059375 4.684375 -4 5 C-4.33 5.66 -4.66 6.32 -5 7 C-5 5.68 -5 4.36 -5 3 C-2.5 1.25 -2.5 1.25 0 0 Z " fill="#164D51" transform="translate(412,327)"/>
<path d="M0 0 C3.13269705 3.13269705 3.05494397 5.97328423 3.0625 10.25 C3.041875 11.4875 3.02125 12.725 3 14 C-0.2102122 10.7897878 0.01025241 7.62539686 -0.0625 3.1875 C-0.041875 2.135625 -0.02125 1.08375 0 0 Z " fill="#1D4E51" transform="translate(472,204)"/>
<path d="M0 0 C0.66 0 1.32 0 2 0 C3.6140712 2.8973901 4.3756433 5.33286311 4.75 8.625 C4.84796875 9.40101563 4.9459375 10.17703125 5.046875 10.9765625 C5 13 5 13 3 15 C2.01 10.05 1.02 5.1 0 0 Z " fill="#1D5154" transform="translate(500,181)"/>
<path d="M0 0 C1.33583899 4.84241633 2.25328119 8.93437617 2 14 C0.09610151 11.14415227 -0.69462177 9.0688238 -1.625 5.8125 C-2.01558594 4.46091797 -2.01558594 4.46091797 -2.4140625 3.08203125 C-2.60742188 2.39496094 -2.80078125 1.70789063 -3 1 C-1 0 -1 0 0 0 Z " fill="#1D5152" transform="translate(487,128)"/>
<path d="M0 0 C0.99 0.33 1.98 0.66 3 1 C2.67 2.65 2.34 4.3 2 6 C1.34 6 0.68 6 0 6 C-0.66 7.32 -1.32 8.64 -2 10 C-3 8 -3 8 -2.44140625 6.0546875 C-2.15136719 5.33539062 -1.86132812 4.61609375 -1.5625 3.875 C-1.27503906 3.15054688 -0.98757812 2.42609375 -0.69140625 1.6796875 C-0.46324219 1.12539063 -0.23507813 0.57109375 0 0 Z " fill="#2A5D62" transform="translate(225,624)"/>
<path d="M0 0 C4.2742558 1.5830577 6.26531794 4.50568404 9 8 C8.01 8.495 8.01 8.495 7 9 C6.34 8.34 5.68 7.68 5 7 C4.34 6.67 3.68 6.34 3 6 C3 5.01 3 4.02 3 3 C2.01 3 1.02 3 0 3 C0 2.01 0 1.02 0 0 Z " fill="#DAEFF0" transform="translate(422,541)"/>
<path d="M0 0 C0.68359375 1.765625 0.68359375 1.765625 1 4 C-0.21484375 5.921875 -0.21484375 5.921875 -1.9375 7.75 C-2.50339844 8.36359375 -3.06929688 8.9771875 -3.65234375 9.609375 C-4.31943359 10.29773438 -4.31943359 10.29773438 -5 11 C-5.99 10.34 -6.98 9.68 -8 9 C-6.576875 7.88625 -6.576875 7.88625 -5.125 6.75 C-2.67467599 4.72154781 -1.12674637 3.0422152 0 0 Z " fill="#DFF2F3" transform="translate(266,348)"/>
<path d="M0 0 C2.74277578 3.19990508 4.6302836 6.00499382 6 10 C3.54896452 9.01958581 2.23241214 8.3486182 0.75 6.125 C0 4 0 4 0 0 Z " fill="#DAEDEF" transform="translate(424,653)"/>
<path d="M0 0 C1.65 0 3.3 0 5 0 C5.625 3.375 5.625 3.375 6 7 C5.34 7.66 4.68 8.32 4 9 C3.87882812 8.43410156 3.75765625 7.86820313 3.6328125 7.28515625 C3.38144531 6.18494141 3.38144531 6.18494141 3.125 5.0625 C2.96257812 4.33160156 2.80015625 3.60070312 2.6328125 2.84765625 C2.17038477 0.79299706 2.17038477 0.79299706 0 0 Z " fill="#1B5256" transform="translate(360,622)"/>
<path d="M0 0 C0.66 0.33 1.32 0.66 2 1 C1.01 2.485 1.01 2.485 0 4 C-0.07905064 6.33199388 -0.08798769 8.66832622 0 11 C-2.00240521 8.74729413 -2.94368221 7.39422456 -3.375 4.375 C-3.25125 3.59125 -3.1275 2.8075 -3 2 C-2.01 1.34 -1.02 0.68 0 0 Z " fill="#DEF2F4" transform="translate(368,620)"/>
<path d="M0 0 C0.99 0 1.98 0 3 0 C3.99 2.97 4.98 5.94 6 9 C5.01 9 4.02 9 3 9 C1.875 5.25 1.875 5.25 3 3 C2.01 3 1.02 3 0 3 C0 2.01 0 1.02 0 0 Z " fill="#DDF0F1" transform="translate(148,534)"/>
<path d="M0 0 C1.9955516 3.99110319 2.19546065 5.69986566 2 10 C0.02 10.99 0.02 10.99 -2 12 C-1.34 8.04 -0.68 4.08 0 0 Z " fill="#1A5054" transform="translate(258,400)"/>
<path d="M0 0 C0.33 0.66 0.66 1.32 1 2 C3.32156597 2.40729228 5.6568787 2.74438677 8 3 C7.01 3.495 7.01 3.495 6 4 C6 4.66 6 5.32 6 6 C3.64828869 5.40138258 1.3140622 4.73075648 -1 4 C-1.33 3.34 -1.66 2.68 -2 2 C-1.34 2 -0.68 2 0 2 C0 1.34 0 0.68 0 0 Z " fill="#25585C" transform="translate(412,353)"/>
<path d="M0 0 C2.60704898 2.60704898 2.23905333 4.47338241 2.265625 8.02734375 C2 10 2 10 0 13 C-0.19397476 11.02145742 -0.38001321 9.0421352 -0.5625 7.0625 C-0.66691406 5.96035156 -0.77132813 4.85820312 -0.87890625 3.72265625 C-0.91886719 2.82417969 -0.95882813 1.92570312 -1 1 C-0.67 0.67 -0.34 0.34 0 0 Z " fill="#336364" transform="translate(266,335)"/>
<path d="M0 0 C0.66 0 1.32 0 2 0 C2 0.99 2 1.98 2 3 C2.99 2.67 3.98 2.34 5 2 C5.33 2.66 5.66 3.32 6 4 C5.0625 6.625 5.0625 6.625 4 9 C1.3144406 6.3144406 0.93950026 3.62378672 0 0 Z " fill="#235152" transform="translate(190,634)"/>
<path d="M0 0 C0 1.32 0 2.64 0 4 C-0.99 4 -1.98 4 -3 4 C-3.33 4.66 -3.66 5.32 -4 6 C-4.66 4.02 -5.32 2.04 -6 0 C-2.25 -1.125 -2.25 -1.125 0 0 Z " fill="#0E5050" transform="translate(167,561)"/>
<path d="M0 0 C2.475 0.99 2.475 0.99 5 2 C4.34 3.65 3.68 5.3 3 7 C0.525 6.01 0.525 6.01 -2 5 C-1.01 4.34 -0.02 3.68 1 3 C0.67 2.01 0.34 1.02 0 0 Z " fill="#EAF3F2" transform="translate(416,537)"/>
<path d="M0 0 C2.4375 1.125 2.4375 1.125 5 3 C5.8125 6.1875 5.8125 6.1875 6 9 C5.01 9.495 5.01 9.495 4 10 C3.32845067 8.71086513 2.66291141 7.41859796 2 6.125 C1.62875 5.40570313 1.2575 4.68640625 0.875 3.9453125 C0 2 0 2 0 0 Z " fill="#1B5055" transform="translate(457,391)"/>
<path d="M0 0 C0.66 0.33 1.32 0.66 2 1 C1.67 2.98 1.34 4.96 1 7 C0.01 7 -0.98 7 -2 7 C-2.6875 5.1875 -2.6875 5.1875 -3 3 C-1.5625 1.25 -1.5625 1.25 0 0 Z " fill="#114A50" transform="translate(172,167)"/>
<path d="M0 0 C2.88437779 1.29299694 4.87219421 2.65941363 7 5 C5.35 5.33 3.7 5.66 2 6 C1.34 4.02 0.68 2.04 0 0 Z " fill="#174E51" transform="translate(433,105)"/>
<path d="M0 0 C2.96404505 2.80804268 5.44499019 5.18315774 7 9 C2.79373966 7.49776416 1.26099979 4.71449966 -1 1 C-0.67 0.67 -0.34 0.34 0 0 Z " fill="#DFF4F5" transform="translate(460,87)"/>
<path d="M0 0 C2.76223278 2.76223278 2.57856291 5.20706617 3 9 C1.68 9 0.36 9 -1 9 C-0.67 6.03 -0.34 3.06 0 0 Z " fill="#1D5155" transform="translate(251,434)"/>
<path d="M0 0 C0.33 0 0.66 0 1 0 C1.58305225 3.84814487 0.7002883 5.76308635 -1.5 8.8125 C-2.32219744 9.88364055 -3.15204049 10.9491359 -4 12 C-4.33 11.34 -4.66 10.68 -5 10 C-4.00390625 7.6171875 -4.00390625 7.6171875 -2.5625 4.875 C-1.85287109 3.50988281 -1.85287109 3.50988281 -1.12890625 2.1171875 C-0.75636719 1.41851562 -0.38382813 0.71984375 0 0 Z " fill="#D9E9EB" transform="translate(198,423)"/>
<path d="M0 0 C-3.85756507 2.15305957 -6.55129785 3.39253254 -11 3 C-11.33 2.34 -11.66 1.68 -12 1 C-10.56496445 0.63597631 -9.12683494 0.28413409 -7.6875 -0.0625 C-6.88699219 -0.25972656 -6.08648437 -0.45695312 -5.26171875 -0.66015625 C-3 -1 -3 -1 0 0 Z " fill="#1D4E53" transform="translate(434,356)"/>
<path d="M0 0 C0 0.66 0 1.32 0 2 C-1.65385233 3.34919532 -3.321702 4.68133728 -5 6 C-5.99 7.485 -5.99 7.485 -7 9 C-7.99 8.67 -8.98 8.34 -10 8 C-8.33333333 6.33333333 -6.66666667 4.66666667 -5 3 C-4.443125 2.401875 -3.88625 1.80375 -3.3125 1.1875 C-2 0 -2 0 0 0 Z " fill="#DEF1F2" transform="translate(471,286)"/>
<path d="M0 0 C2 1 2 1 2.6328125 2.84765625 C2.79523438 3.57855469 2.95765625 4.30945313 3.125 5.0625 C3.29257812 5.79597656 3.46015625 6.52945313 3.6328125 7.28515625 C3.75398438 7.85105469 3.87515625 8.41695312 4 9 C3.01 9.66 2.02 10.32 1 11 C0.67 7.37 0.34 3.74 0 0 Z " fill="#24555B" transform="translate(459,147)"/>
<path d="M0 0 C0.99 0 1.98 0 3 0 C3.0825 0.78375 3.165 1.5675 3.25 2.375 C3.72806339 5.14749104 3.72806339 5.14749104 6.0625 6.3125 C6.701875 6.539375 7.34125 6.76625 8 7 C7.01 7.33 6.02 7.66 5 8 C0 2.25 0 2.25 0 0 Z " fill="#1C4F52" transform="translate(460,85)"/>
<path d="M0 0 C0.99 1.32 1.98 2.64 3 4 C1.02 4.99 -0.96 5.98 -3 7 C-2.25 2.25 -2.25 2.25 0 0 Z " fill="#1A5354" transform="translate(221,73)"/>
<path d="M0 0 C0.66 0 1.32 0 2 0 C1.01 3.3 0.02 6.6 -1 10 C-2 6 -2 6 -2 2 C-1.34 1.34 -0.68 0.68 0 0 Z " fill="#DFF5F4" transform="translate(200,689)"/>
<path d="M0 0 C0.33 0 0.66 0 1 0 C1.19622241 4.21878192 0.80230168 7.17010894 -1 11 C-1.66 11 -2.32 11 -3 11 C-2.44894091 7.0507432 -1.61064629 3.65079826 0 0 Z " fill="#24565A" transform="translate(202,688)"/>
<path d="M0 0 C0.33 0 0.66 0 1 0 C1 3.3 1 6.6 1 10 C0.01 9.67 -0.98 9.34 -2 9 C-1.51421457 5.87709365 -1.0013988 3.00419641 0 0 Z " fill="#285154" transform="translate(234,599)"/>
<path d="M0 0 C2.64 0.33 5.28 0.66 8 1 C8.33 2.32 8.66 3.64 9 5 C5.22454612 3.90931332 2.52956528 3.0916909 0 0 Z " fill="#D9EEF0" transform="translate(177,378)"/>
<path d="M0 0 C0.99 0.99 1.98 1.98 3 3 C2 6 2 6 0 7 C-0.66 7.99 -1.32 8.98 -2 10 C-1.46274105 6.62294375 -0.88935377 3.303314 0 0 Z " fill="#25595D" transform="translate(210,148)"/>
<path d="M0 0 C0.66 0 1.32 0 2 0 C3.6875 2.3125 3.6875 2.3125 5 5 C4.67 5.99 4.34 6.98 4 8 C4 8.99 4 9.98 4 11 C1.6870518 8.6870518 1.50419025 7.52095125 0.875 4.375 C0.70742188 3.55773437 0.53984375 2.74046875 0.3671875 1.8984375 C0.24601562 1.27195313 0.12484375 0.64546875 0 0 Z " fill="#275D5E" transform="translate(489,143)"/>
<path d="M0 0 C0.25 2.3125 0.25 2.3125 0 5 C-2 6.8125 -2 6.8125 -4 8 C-4 5.69 -4 3.38 -4 1 C-1 0 -1 0 0 0 Z " fill="#0A4649" transform="translate(212,81)"/>
<path d="M0 0 C2 3 2 3 2 7 C0.0625 6.1875 0.0625 6.1875 -2 5 C-2.33 4.01 -2.66 3.02 -3 2 C-2.01 2 -1.02 2 0 2 C0 1.34 0 0.68 0 0 Z " fill="#154E50" transform="translate(453,692)"/>
<path d="M0 0 C0.66 0.33 1.32 0.66 2 1 C1.67 1.66 1.34 2.32 1 3 C1.99 2.67 2.98 2.34 4 2 C3.67 2.99 3.34 3.98 3 5 C0.9375 5.6875 0.9375 5.6875 -1 6 C-1.66 4.68 -2.32 3.36 -3 2 C-2.01 1.34 -1.02 0.68 0 0 Z " fill="#105455" transform="translate(441,673)"/>
<path d="M0 0 C2.12508244 3.18762365 2.5020163 5.26512223 3 9 C2.01 9 1.02 9 0 9 C0 6.03 0 3.06 0 0 Z " fill="#1C504A" transform="translate(139,599)"/>
<path d="M0 0 C0.66 0.33 1.32 0.66 2 1 C0 4 0 4 -1.9375 4.8125 C-4 5 -4 5 -7 3 C-4.69631264 1.93347808 -2.35981813 0.93578995 0 0 Z " fill="#D7ECED" transform="translate(248,534)"/>
<path d="M0 0 C4.3177458 0.50797009 8.03302114 1.19682779 12 3 C8.69564916 4.12377697 6.9493138 3.89554742 3.75 2.5625 C3.04359375 2.27503906 2.3371875 1.98757813 1.609375 1.69140625 C1.07828125 1.46324219 0.5471875 1.23507812 0 1 C0 0.67 0 0.34 0 0 Z " fill="#295B5C" transform="translate(212,294)"/>
<path d="M0 0 C0.33 0 0.66 0 1 0 C1.08131463 1.43655854 1.13933559 2.8744483 1.1875 4.3125 C1.23970703 5.51326172 1.23970703 5.51326172 1.29296875 6.73828125 C0.93801608 9.47851584 0.10633718 10.29171079 -2 12 C-1 3.42857143 -1 3.42857143 0 0 Z " fill="#C0DDDE" transform="translate(172,174)"/>
<path d="M0 0 C0.66 0.99 1.32 1.98 2 3 C0.625 5.5 0.625 5.5 -1 8 C-1.66 8 -2.32 8 -3 8 C-2.45276317 4.62537285 -1.9451 2.91765 0 0 Z " fill="#1E5557" transform="translate(220,124)"/>
<path d="M0 0 C5.75 1.75 5.75 1.75 8 4 C5 5 5 5 1.8125 3.5625 C0.884375 3.046875 -0.04375 2.53125 -1 2 C-0.67 1.34 -0.34 0.68 0 0 Z " fill="#1A4F52" transform="translate(420,97)"/>
<path d="M0 0 C3.31562557 0.55260426 6.15062207 1.16825705 9 3 C9.33 3.99 9.66 4.98 10 6 C6.00499382 4.6302836 3.19990508 2.74277578 0 0 Z " fill="#D7F0F1" transform="translate(424,98)"/>
<path d="M0 0 C1.5 1.375 1.5 1.375 3 3 C3 3.66 3 4.32 3 5 C2.34 5 1.68 5 1 5 C1.33 5.99 1.66 6.98 2 8 C1.34 8 0.68 8 0 8 C-1.125 2.25 -1.125 2.25 0 0 Z " fill="#1C525A" transform="translate(403,695)"/>
<path d="M0 0 C0.66 1.32 1.32 2.64 2 4 C0.625 7.25 0.625 7.25 -1 10 C-1.66 10 -2.32 10 -3 10 C-2.01 6.7 -1.02 3.4 0 0 Z " fill="#2C595F" transform="translate(206,677)"/>
<path d="M0 0 C1.89213369 2.38573379 3.02391783 4.07175348 4 7 C3.01 7 2.02 7 1 7 C-0.0625 4.625 -0.0625 4.625 -1 2 C-0.67 1.34 -0.34 0.68 0 0 Z " fill="#265758" transform="translate(391,673)"/>
<path d="M0 0 C0.33 0.66 0.66 1.32 1 2 C1.66 2 2.32 2 3 2 C2.67 2.66 2.34 3.32 2 4 C1.34 3.67 0.68 3.34 0 3 C-0.33 4.32 -0.66 5.64 -1 7 C-1.66 6.67 -2.32 6.34 -3 6 C-2.625 3.5625 -2.625 3.5625 -2 1 C-1.34 0.67 -0.68 0.34 0 0 Z " fill="#24575B" transform="translate(213,661)"/>
<path d="M0 0 C0.66 0.33 1.32 0.66 2 1 C2.625 4.0625 2.625 4.0625 3 7 C2.01 7.495 2.01 7.495 1 8 C-2 3.25 -2 3.25 -2 1 C-1.34 0.67 -0.68 0.34 0 0 Z " fill="#235151" transform="translate(408,621)"/>
<path d="M0 0 C0.33 0.66 0.66 1.32 1 2 C1.66 2.33 2.32 2.66 3 3 C2.67 3.66 2.34 4.32 2 5 C0.02 4.34 -1.96 3.68 -4 3 C-2.68 2.01 -1.36 1.02 0 0 Z " fill="#165255" transform="translate(417,617)"/>
<path d="M0 0 C0.33 0 0.66 0 1 0 C1.125 6.75 1.125 6.75 0 9 C-0.99 9 -1.98 9 -3 9 C-2.01 6.03 -1.02 3.06 0 0 Z " fill="#D6EBEB" transform="translate(396,594)"/>
<path d="M0 0 C1.9451 2.91765 2.45276317 4.62537285 3 8 C2.01 8.495 2.01 8.495 1 9 C-1.125 2.25 -1.125 2.25 0 0 Z " fill="#E1F1F4" transform="translate(156,549)"/>
<path d="M0 0 C2.46800047 1.15173355 4.04783565 2.04783565 6 4 C5.34 4.66 4.68 5.32 4 6 C2.35 4.35 0.7 2.7 -1 1 C-0.67 0.67 -0.34 0.34 0 0 Z " fill="#1A4D4F" transform="translate(421,537)"/>
<path d="M0 0 C0.99 0.33 1.98 0.66 3 1 C1.68 3.31 0.36 5.62 -1 8 C-1.66 8 -2.32 8 -3 8 C-1.125 2.25 -1.125 2.25 0 0 Z " fill="#DAEAED" transform="translate(202,415)"/>
<path d="M0 0 C0.66 0 1.32 0 2 0 C1.34 3.3 0.68 6.6 0 10 C-0.33 10 -0.66 10 -1 10 C-1.02689216 8.52093108 -1.04634621 7.04172517 -1.0625 5.5625 C-1.07410156 4.73878906 -1.08570313 3.91507812 -1.09765625 3.06640625 C-1 1 -1 1 0 0 Z " fill="#DBF2F3" transform="translate(509,343)"/>
<path d="M0 0 C0.66 0 1.32 0 2 0 C3.85776765 3.13498292 4.20140476 5.37471432 4 9 C3.34 9 2.68 9 2 9 C1.34 6.03 0.68 3.06 0 0 Z " fill="#194E4F" transform="translate(497,169)"/>
<path d="M0 0 C1.23076923 4.92307692 1.23076923 4.92307692 0 8 C-0.99 8.66 -1.98 9.32 -3 10 C-2.01 6.7 -1.02 3.4 0 0 Z " fill="#D2E8E9" transform="translate(179,152)"/>
<path d="M0 0 C2.37783838 2.37783838 2.59009208 3.72073665 3 7 C2.67 7.66 2.34 8.32 2 9 C1.34 9 0.68 9 0 9 C-1.10844919 5.67465243 -0.84454356 3.37817425 0 0 Z " fill="#DFF0F1" transform="translate(482,126)"/>
<path d="M0 0 C2.475 0.99 2.475 0.99 5 2 C5 3.65 5 5.3 5 7 C4.01 7.495 4.01 7.495 3 8 C2.01 5.36 1.02 2.72 0 0 Z " fill="#1A4F51" transform="translate(474,107)"/>
<path d="M0 0 C2.475 0.495 2.475 0.495 5 1 C4.67 2.32 4.34 3.64 4 5 C3.34 5 2.68 5 2 5 C1.34 3.35 0.68 1.7 0 0 Z " fill="#E5F4F7" transform="translate(402,692)"/>
<path d="M0 0 C0.66 0.99 1.32 1.98 2 3 C1.67 3.99 1.34 4.98 1 6 C-0.65 6 -2.3 6 -4 6 C-2.68 4.02 -1.36 2.04 0 0 Z " fill="#24535D" transform="translate(431,604)"/>
<path d="M0 0 C0.66 0 1.32 0 2 0 C1.6875 2.375 1.6875 2.375 1 5 C0.01 5.66 -0.98 6.32 -2 7 C-2.33 6.34 -2.66 5.68 -3 5 C-1.6875 2.375 -1.6875 2.375 0 0 Z " fill="#1B4F54" transform="translate(435,598)"/>
<path d="M0 0 C0.66 0.66 1.32 1.32 2 2 C1.625 4.625 1.625 4.625 1 7 C0.01 7.33 -0.98 7.66 -2 8 C-1.34 5.36 -0.68 2.72 0 0 Z " fill="#D6E9EC" transform="translate(210,593)"/>
<path d="M0 0 C0.33 0 0.66 0 1 0 C0.4140625 6.15234375 0.4140625 6.15234375 0 8 C-0.99 8.495 -0.99 8.495 -2 9 C-2.25 3.375 -2.25 3.375 0 0 Z " fill="#1C4D51" transform="translate(497,573)"/>
<path d="M0 0 C0.33 0 0.66 0 1 0 C3.42857143 7.42857143 3.42857143 7.42857143 2 11 C2 10.34 2 9.68 2 9 C1.34 9 0.68 9 0 9 C0 6.03 0 3.06 0 0 Z " fill="#0E4646" transform="translate(404,337)"/>
<path d="M0 0 C0.66 0 1.32 0 2 0 C0.25 5.75 0.25 5.75 -2 8 C-2.33 7.34 -2.66 6.68 -3 6 C-2.06553465 3.96855359 -1.06775224 1.96466413 0 0 Z " fill="#DEEFF2" transform="translate(196,109)"/>
<path d="M0 0 C0.33 1.32 0.66 2.64 1 4 C-1.475 5.485 -1.475 5.485 -4 7 C-4 4 -4 4 -2 1.8125 C-1.34 1.214375 -0.68 0.61625 0 0 Z " fill="#0E4649" transform="translate(234,107)"/>
</svg>
