<?xml version="1.0" encoding="UTF-8"?>
<svg version="1.1" xmlns="http://www.w3.org/2000/svg" width="512" height="512">
<path d="M0 0 C1.45108658 0.00273422 1.45108658 0.00273422 2.93148804 0.00552368 C17.26440977 0.05095174 31.21023917 0.55983928 45.3125 3.3125 C46.65803955 3.55395752 46.65803955 3.55395752 48.03076172 3.80029297 C107.84088904 14.62287989 165.35495829 48.68064457 202.3125 97.3125 C202.72918945 97.85277832 203.14587891 98.39305664 203.57519531 98.94970703 C211.2584873 108.9447116 218.00092968 119.40459036 224.3125 130.3125 C224.70679199 130.98974121 225.10108398 131.66698242 225.50732422 132.36474609 C238.68961173 155.2833756 247.29510918 180.85822563 252.625 206.6875 C252.77243652 207.39817627 252.91987305 208.10885254 253.07177734 208.84106445 C256.05713787 224.48358366 256.6873098 240.11919606 256.625 256 C256.62226578 257.45108658 256.62226578 257.45108658 256.61947632 258.93148804 C256.57404826 273.26440977 256.06516072 287.21023917 253.3125 301.3125 C253.15152832 302.20952637 252.99055664 303.10655273 252.82470703 304.03076172 C242.00212011 363.84088904 207.94435543 421.35495829 159.3125 458.3125 C158.77222168 458.72918945 158.23194336 459.14587891 157.67529297 459.57519531 C147.6802884 467.2584873 137.22040964 474.00092968 126.3125 480.3125 C125.63525879 480.70679199 124.95801758 481.10108398 124.26025391 481.50732422 C101.3416244 494.68961173 75.76677437 503.29510918 49.9375 508.625 C49.22682373 508.77243652 48.51614746 508.91987305 47.78393555 509.07177734 C32.14141634 512.05713787 16.50580394 512.6873098 0.625 512.625 C-0.34239105 512.62317719 -1.3097821 512.62135437 -2.30648804 512.61947632 C-16.63940977 512.57404826 -30.58523917 512.06516072 -44.6875 509.3125 C-45.58452637 509.15152832 -46.48155273 508.99055664 -47.40576172 508.82470703 C-107.21588904 498.00212011 -164.72995829 463.94435543 -201.6875 415.3125 C-202.10418945 414.77222168 -202.52087891 414.23194336 -202.95019531 413.67529297 C-210.6334873 403.6802884 -217.37592968 393.22040964 -223.6875 382.3125 C-224.08179199 381.63525879 -224.47608398 380.95801758 -224.88232422 380.26025391 C-238.06461173 357.3416244 -246.67010918 331.76677437 -252 305.9375 C-252.14743652 305.22682373 -252.29487305 304.51614746 -252.44677734 303.78393555 C-255.43213787 288.14141634 -256.0623098 272.50580394 -256 256.625 C-255.99817719 255.65760895 -255.99635437 254.6902179 -255.99447632 253.69351196 C-255.94904826 239.36059023 -255.44016072 225.41476083 -252.6875 211.3125 C-252.44604248 209.96696045 -252.44604248 209.96696045 -252.19970703 208.59423828 C-241.37712011 148.78411096 -207.31935543 91.27004171 -158.6875 54.3125 C-158.14722168 53.89581055 -157.60694336 53.47912109 -157.05029297 53.04980469 C-147.0552884 45.3665127 -136.59540964 38.62407032 -125.6875 32.3125 C-125.01025879 31.91820801 -124.33301758 31.52391602 -123.63525391 31.11767578 C-100.7166244 17.93538827 -75.14177437 9.32989082 -49.3125 4 C-48.60182373 3.85256348 -47.89114746 3.70512695 -47.15893555 3.55322266 C-31.51641634 0.56786213 -15.88080394 -0.0623098 0 0 Z " fill="#83DAFE" transform="translate(255.6875,-0.3125)"/>
<path d="M0 0 C2.9336317 0.60841232 4.19624742 2.00599639 5.90234375 4.39453125 C6.80070794 7.08962383 7.03061201 8.63842185 7.04100895 11.40252209 C7.04648339 12.2201264 7.05195784 13.03773072 7.05759817 13.88011092 C7.05857628 14.77796335 7.05955439 15.67581578 7.06056213 16.60087585 C7.0679691 18.03192232 7.0679691 18.03192232 7.0755257 19.49187881 C7.09093675 22.7025105 7.09927109 25.91312215 7.10766602 29.1237793 C7.1172417 31.41976092 7.1272516 33.71574077 7.13766479 36.01171875 C7.16475343 42.25719837 7.18574155 48.50268557 7.20566678 54.7481916 C7.22750194 61.2705218 7.25490269 67.79282851 7.28172302 74.31513977 C7.32600189 85.26647942 7.36683149 96.21782697 7.4050293 107.16918945 C7.44438492 118.44979798 7.48581131 129.73039577 7.5300293 141.01098633 C7.53275357 141.70616813 7.53547784 142.40134993 7.53828467 143.11759784 C7.55196416 146.60507467 7.56568443 150.09255134 7.57942498 153.58002794 C7.69338759 182.5181731 7.80012412 211.45634232 7.90234375 240.39453125 C9.35166707 238.78935345 10.80025738 237.18351378 12.24853516 235.57739258 C13.05529694 234.68321121 13.86205872 233.78902985 14.69326782 232.86775208 C16.9622962 230.32741014 19.14641881 227.73916418 21.27734375 225.08203125 C25.07449357 220.39026498 28.95366729 215.77818714 32.86865234 211.18505859 C36.43866089 206.98155966 39.8742966 202.68507534 43.24609375 198.3203125 C44.90234375 196.39453125 44.90234375 196.39453125 47.90234375 194.39453125 C55.55106392 194.71129643 62.68420097 196.78113073 70.02734375 198.83203125 C71.73857422 199.30092773 71.73857422 199.30092773 73.484375 199.77929688 C78.96639487 201.2851014 84.439925 202.81913802 89.90234375 204.39453125 C90.17079102 203.5240918 90.43923828 202.65365234 90.71582031 201.75683594 C91.86782347 198.49235292 93.23949318 195.63814756 94.88671875 192.59765625 C95.7845105 190.93162354 95.7845105 190.93162354 96.70043945 189.23193359 C97.35097529 188.03607899 98.00161261 186.84027959 98.65234375 185.64453125 C99.32620985 184.39818965 99.99962416 183.15160368 100.67260742 181.90478516 C102.06056377 179.33470587 103.45100751 176.76599562 104.84326172 174.19824219 C106.79048215 170.60469077 108.72495824 167.00448229 110.65625 163.40234375 C114.05770308 157.05884383 117.47359418 150.72331764 120.90234375 144.39453125 C121.40733398 143.4617334 121.91232422 142.52893555 122.43261719 141.56787109 C123.81185129 139.02729791 125.19896502 136.49124401 126.58984375 133.95703125 C127.18696167 132.85657471 127.18696167 132.85657471 127.79614258 131.73388672 C129.54980464 128.56052051 131.14394879 125.77060109 133.90234375 123.39453125 C134.56234375 123.39453125 135.22234375 123.39453125 135.90234375 123.39453125 C135.90234375 93.36453125 135.90234375 63.33453125 135.90234375 32.39453125 C148.11234375 32.39453125 160.32234375 32.39453125 172.90234375 32.39453125 C173.23234375 60.44453125 173.56234375 88.49453125 173.90234375 117.39453125 C182.59674764 108.01976897 182.59674764 108.01976897 191.0625 98.484375 C193.46904531 95.75082566 195.93537571 93.07339119 198.40234375 90.39453125 C201.44124552 87.09426249 204.46390475 83.78503778 207.40234375 80.39453125 C210.80911725 76.46363875 214.3323716 72.64256552 217.85546875 68.81640625 C220.40789518 66.03959068 222.93217663 63.24472408 225.40234375 60.39453125 C228.76557013 56.51636112 232.23570046 52.73925314 235.71044922 48.96142578 C240.97400174 43.2365691 246.16634534 37.44856769 251.35546875 31.65625 C252.1546875 30.76550781 252.95390625 29.87476563 253.77734375 28.95703125 C254.49664062 28.15394531 255.2159375 27.35085937 255.95703125 26.5234375 C256.59898437 25.82089844 257.2409375 25.11835937 257.90234375 24.39453125 C258.66224609 23.52248047 258.66224609 23.52248047 259.4375 22.6328125 C260.90234375 21.39453125 260.90234375 21.39453125 264.46484375 21.01953125 C265.59921875 21.14328125 266.73359375 21.26703125 267.90234375 21.39453125 C270.07901006 24.65953071 270.43193927 25.60763858 269.90234375 29.39453125 C268.3203125 31.6484375 268.3203125 31.6484375 266.08984375 33.95703125 C264.86201172 35.25447266 264.86201172 35.25447266 263.609375 36.578125 C262.26939453 37.97224609 262.26939453 37.97224609 260.90234375 39.39453125 C259.01623979 41.4260761 257.14701673 43.47287074 255.27734375 45.51953125 C254.80643311 46.03201416 254.33552246 46.54449707 253.8503418 47.07250977 C250.77092608 50.42603503 247.758894 53.82928096 244.77734375 57.26953125 C241.88383366 60.54884268 238.91146016 63.75559837 235.94921875 66.97265625 C233.39679232 69.74947182 230.87251087 72.54433842 228.40234375 75.39453125 C224.99489456 79.32620339 221.47104702 83.14814369 217.94702148 86.97485352 C215.41494259 89.72926553 212.91199107 92.50195624 210.46484375 95.33203125 C206.84089731 99.51485136 203.06978629 103.55724932 199.30712891 107.61474609 C196.61011162 110.528269 193.93989073 113.45601317 191.33984375 116.45703125 C188.32785166 119.92156403 185.28656524 123.35791237 182.21484375 126.76953125 C181.75070068 127.29426025 181.28655762 127.81898926 180.80834961 128.35961914 C178.22903416 131.20657749 176.41993708 132.63573459 172.90234375 134.39453125 C172.90234375 186.53453125 172.90234375 238.67453125 172.90234375 292.39453125 C212.54356539 292.23614117 212.54356539 292.23614117 252.18457031 292.03417969 C259.84716797 292.01611328 259.84716797 292.01611328 263.43304443 292.01275635 C265.94039751 292.00660932 268.44773867 291.99253133 270.95501709 291.972229 C274.75049419 291.94302896 278.54524803 291.93890451 282.34082031 291.94042969 C283.45999973 291.92603725 284.57917915 291.91164482 285.7322731 291.89681625 C286.75376324 291.90232624 287.77525337 291.90783623 288.82769775 291.91351318 C289.71630619 291.90982601 290.60491463 291.90613884 291.52045059 291.90233994 C294.68125685 292.55548484 295.8866769 293.93380811 297.90234375 296.39453125 C298.43359375 298.39453125 298.43359375 298.39453125 298.40234375 300.39453125 C298.41265625 301.05453125 298.42296875 301.71453125 298.43359375 302.39453125 C297.66134269 305.30182937 296.19342522 306.48690923 293.90234375 308.39453125 C291.48654366 308.89592791 291.48654366 308.89592791 288.7361145 308.89789581 C287.16034039 308.9135423 287.16034039 308.9135423 285.55273247 308.92950487 C284.39982782 308.92058198 283.24692318 308.9116591 282.05908203 308.90246582 C280.83342089 308.90870578 279.60775974 308.91494575 278.34495735 308.9213748 C274.94093391 308.93458744 271.53779083 308.92980831 268.13382053 308.91742992 C264.46367394 308.90839443 260.79360532 308.92234166 257.12347412 308.93334961 C249.93299723 308.95115556 242.74268714 308.94728567 235.55220366 308.93569905 C229.70945076 308.92667313 223.86674468 308.92543707 218.02398682 308.92979431 C217.1930753 308.93040724 216.36216377 308.93102018 215.50607312 308.93165168 C213.81820216 308.93293056 212.13033122 308.93422741 210.4424603 308.93554205 C194.60753021 308.94695392 178.77269267 308.93382464 162.93777776 308.91234058 C149.34453985 308.89446904 135.75143857 308.89757297 122.15820312 308.91601562 C106.38074683 308.93741164 90.60337171 308.94585523 74.82590294 308.93356657 C73.14416887 308.93229235 71.46243478 308.93103486 69.78070068 308.92979431 C68.53946526 308.92886866 68.53946526 308.92886866 67.27315438 308.92792431 C61.43600973 308.92446759 55.59891648 308.93030666 49.76177979 308.93971252 C42.65024058 308.95091981 35.53887802 308.94791937 28.4273591 308.92658955 C24.79745922 308.91606185 21.16785408 308.9119862 17.53795624 308.92518616 C13.60700521 308.93926491 9.67653902 308.92247859 5.74560547 308.90246582 C4.0162485 308.91585015 4.0162485 308.91585015 2.25195503 308.92950487 C1.20143896 308.91907388 0.15092289 308.90864289 -0.931427 308.89789581 C-1.83906862 308.8972464 -2.74671024 308.89659699 -3.68185616 308.89592791 C-6.94691959 308.21826758 -8.11930533 307.0477724 -10.09765625 304.39453125 C-10.59905291 301.97873116 -10.59905291 301.97873116 -10.60102081 299.228302 C-10.6114518 298.17778593 -10.62188279 297.12726986 -10.63262987 296.04491997 C-10.62370698 294.89201532 -10.6147841 293.73911068 -10.60559082 292.55126953 C-10.61495076 290.71277781 -10.61495076 290.71277781 -10.6244998 288.83714485 C-10.63771244 285.43312141 -10.63293331 282.02997833 -10.62055492 278.62600803 C-10.61151943 274.95586144 -10.62546666 271.28579282 -10.63647461 267.61566162 C-10.65428056 260.42518473 -10.65041067 253.23487464 -10.63882405 246.04439116 C-10.62979813 240.20163826 -10.62856207 234.35893218 -10.63291931 228.51617432 C-10.63353224 227.6852628 -10.63414518 226.85435127 -10.63477668 225.99826062 C-10.63605556 224.31038966 -10.63735241 222.62251872 -10.63866705 220.9346478 C-10.65007892 205.09971771 -10.63694964 189.26488017 -10.61546558 173.42996526 C-10.59759404 159.83672735 -10.60069797 146.24362607 -10.61914062 132.65039062 C-10.64053664 116.87293433 -10.64898023 101.09555921 -10.63669157 85.31809044 C-10.63541735 83.63635637 -10.63415986 81.95462228 -10.63291931 80.27288818 C-10.63230221 79.4453979 -10.63168511 78.61790762 -10.63104931 77.76534188 C-10.62759259 71.92819723 -10.63343166 66.09110398 -10.64283752 60.25396729 C-10.65404481 53.14242808 -10.65104437 46.03106552 -10.62971455 38.9195466 C-10.61918685 35.28964672 -10.6151112 31.66004158 -10.62831116 28.03014374 C-10.64238991 24.09919271 -10.62560359 20.16872652 -10.60559082 16.23779297 C-10.61451371 15.08488832 -10.62343659 13.93198368 -10.63262987 12.74414253 C-10.61698339 11.16836843 -10.61698339 11.16836843 -10.60102081 9.5607605 C-10.6003714 8.65311888 -10.59972199 7.74547726 -10.59905291 6.81033134 C-9.38333356 0.95282337 -5.30209981 -0.26658602 0 0 Z " fill="#2D3D50" transform="translate(112.09765625,101.60546875)"/>
<path d="M0 0 C0.33 0 0.66 0 1 0 C1 49.83 1 99.66 1 151 C-42.23 151 -85.46 151 -130 151 C-130 120 -130 120 -121 110 C-119.52334217 108.24441791 -118.06021312 106.47712289 -116.625 104.6875 C-111.97526326 98.94798121 -107.21184131 93.31217911 -102.42919922 87.68359375 C-100.48741287 85.39617342 -98.55080085 83.10439735 -96.61401367 80.81274414 C-92.42745201 75.85951793 -88.23014016 70.91610883 -84 66 C-74.13908123 67.823027 -64.62139515 70.14876688 -55 73 C-52.33140295 73.76428619 -49.71882394 74.41739487 -47 75 C-45.96875 75.226875 -44.9375 75.45375 -43.875 75.6875 C-39.69761441 74.68855997 -38.85846978 72.21221909 -36.61474609 68.70385742 C-33.81614122 64.01765407 -31.34309046 59.17873966 -28.875 54.3125 C-24.62132338 46.0255128 -20.29982878 37.78796393 -15.8125 29.625 C-10.4213378 19.81194343 -5.18058223 9.92562879 0 0 Z " fill="#52D5C2" transform="translate(248,243)"/>
<path d="M0 0 C2.9336317 0.60841232 4.19624742 2.00599639 5.90234375 4.39453125 C6.8025603 7.0951809 7.03133878 8.65650562 7.04380226 11.4281702 C7.0498934 12.25150791 7.05598455 13.07484562 7.06226027 13.92313296 C7.0639205 14.82740304 7.06558072 15.73167313 7.06729126 16.66334534 C7.0729348 17.62413228 7.07857835 18.58491923 7.08439291 19.57482094 C7.10215446 22.80842042 7.11282522 26.04200479 7.12353516 29.27563477 C7.13474721 31.58807576 7.14637929 33.90051474 7.15840149 36.21295166 C7.18977473 42.5040154 7.21487209 48.79508997 7.23859835 55.08618665 C7.26415049 61.65829573 7.29448945 68.23038301 7.32406616 74.80247498 C7.37625862 86.5472241 7.42305127 98.2919895 7.46810465 110.03676789 C7.50912571 120.69307436 7.55538906 131.34934762 7.60546875 142.00561523 C7.66358421 154.37226907 7.71831829 166.73893029 7.76806962 179.1056208 C7.79442467 185.65500058 7.82216731 192.20436675 7.85344315 198.75372505 C7.88262112 204.90875732 7.90690595 211.0637895 7.92734337 217.21885681 C7.93567645 219.48366946 7.94574471 221.74847646 7.95763206 224.01327324 C7.97352096 227.09308682 7.98326099 230.17285838 7.99136353 233.25270081 C7.9974852 234.15920161 8.00360687 235.06570242 8.00991404 235.99967295 C8.01649323 242.16623229 8.01649323 242.16623229 6.90234375 244.39453125 C6.78411404 245.935953 6.72534564 247.48214222 6.69702148 249.02783203 C6.67707626 249.98867706 6.65713104 250.94952209 6.63658142 251.93948364 C6.61986893 252.97910248 6.60315643 254.01872131 6.5859375 255.08984375 C6.5651564 256.15242401 6.54437531 257.21500427 6.52296448 258.30978394 C6.45744114 261.71296563 6.39857102 265.11622614 6.33984375 268.51953125 C6.29666118 270.82292491 6.25304698 273.12631051 6.20898438 275.4296875 C6.10175693 281.08455146 5.99999573 286.73949428 5.90234375 292.39453125 C6.51022413 292.39301237 7.11810451 292.39149349 7.74440551 292.38992858 C43.7517728 292.30046625 79.75912101 292.23181033 115.76657628 292.19026993 C120.08754843 292.18526695 124.40852037 292.18008968 128.72949219 292.17480469 C129.58974 292.17375545 130.44998781 292.1727062 131.33630374 292.17162517 C145.27546748 292.15420771 159.21456541 292.12266267 173.15369007 292.08592007 C187.45062217 292.04854789 201.74751974 292.02630329 216.04449868 292.01817727 C224.87046849 292.01268175 233.69625229 291.99530878 242.52216485 291.96286538 C248.56987672 291.94176342 254.61749207 291.93532137 260.66523811 291.94052574 C264.15742085 291.9430943 267.64927798 291.93908625 271.1414032 291.91770935 C274.9237761 291.89791818 278.70534181 291.90255322 282.48773193 291.91351318 C283.59667368 291.90186182 284.70561542 291.89021045 285.84816146 291.87820601 C286.85934358 291.88617021 287.8705257 291.8941344 288.9123497 291.90233994 C289.78570646 291.90082105 290.65906322 291.89930217 291.55888534 291.89773726 C294.68787592 292.56105764 295.90093761 293.9595394 297.90234375 296.39453125 C298.43359375 298.39453125 298.43359375 298.39453125 298.40234375 300.39453125 C298.41265625 301.05453125 298.42296875 301.71453125 298.43359375 302.39453125 C297.66134269 305.30182937 296.19342522 306.48690923 293.90234375 308.39453125 C291.48654366 308.89592791 291.48654366 308.89592791 288.7361145 308.89789581 C287.16034039 308.9135423 287.16034039 308.9135423 285.55273247 308.92950487 C284.39982782 308.92058198 283.24692318 308.9116591 282.05908203 308.90246582 C280.83342089 308.90870578 279.60775974 308.91494575 278.34495735 308.9213748 C274.94093391 308.93458744 271.53779083 308.92980831 268.13382053 308.91742992 C264.46367394 308.90839443 260.79360532 308.92234166 257.12347412 308.93334961 C249.93299723 308.95115556 242.74268714 308.94728567 235.55220366 308.93569905 C229.70945076 308.92667313 223.86674468 308.92543707 218.02398682 308.92979431 C217.1930753 308.93040724 216.36216377 308.93102018 215.50607312 308.93165168 C213.81820216 308.93293056 212.13033122 308.93422741 210.4424603 308.93554205 C194.60753021 308.94695392 178.77269267 308.93382464 162.93777776 308.91234058 C149.34453985 308.89446904 135.75143857 308.89757297 122.15820312 308.91601562 C106.38074683 308.93741164 90.60337171 308.94585523 74.82590294 308.93356657 C73.14416887 308.93229235 71.46243478 308.93103486 69.78070068 308.92979431 C68.53946526 308.92886866 68.53946526 308.92886866 67.27315438 308.92792431 C61.43600973 308.92446759 55.59891648 308.93030666 49.76177979 308.93971252 C42.65024058 308.95091981 35.53887802 308.94791937 28.4273591 308.92658955 C24.79745922 308.91606185 21.16785408 308.9119862 17.53795624 308.92518616 C13.60700521 308.93926491 9.67653902 308.92247859 5.74560547 308.90246582 C4.0162485 308.91585015 4.0162485 308.91585015 2.25195503 308.92950487 C1.20143896 308.91907388 0.15092289 308.90864289 -0.931427 308.89789581 C-1.83906862 308.8972464 -2.74671024 308.89659699 -3.68185616 308.89592791 C-6.94691959 308.21826758 -8.11930533 307.0477724 -10.09765625 304.39453125 C-10.59905291 301.97873116 -10.59905291 301.97873116 -10.60102081 299.228302 C-10.6114518 298.17778593 -10.62188279 297.12726986 -10.63262987 296.04491997 C-10.62370698 294.89201532 -10.6147841 293.73911068 -10.60559082 292.55126953 C-10.61495076 290.71277781 -10.61495076 290.71277781 -10.6244998 288.83714485 C-10.63771244 285.43312141 -10.63293331 282.02997833 -10.62055492 278.62600803 C-10.61151943 274.95586144 -10.62546666 271.28579282 -10.63647461 267.61566162 C-10.65428056 260.42518473 -10.65041067 253.23487464 -10.63882405 246.04439116 C-10.62979813 240.20163826 -10.62856207 234.35893218 -10.63291931 228.51617432 C-10.63353224 227.6852628 -10.63414518 226.85435127 -10.63477668 225.99826062 C-10.63605556 224.31038966 -10.63735241 222.62251872 -10.63866705 220.9346478 C-10.65007892 205.09971771 -10.63694964 189.26488017 -10.61546558 173.42996526 C-10.59759404 159.83672735 -10.60069797 146.24362607 -10.61914062 132.65039062 C-10.64053664 116.87293433 -10.64898023 101.09555921 -10.63669157 85.31809044 C-10.63541735 83.63635637 -10.63415986 81.95462228 -10.63291931 80.27288818 C-10.63230221 79.4453979 -10.63168511 78.61790762 -10.63104931 77.76534188 C-10.62759259 71.92819723 -10.63343166 66.09110398 -10.64283752 60.25396729 C-10.65404481 53.14242808 -10.65104437 46.03106552 -10.62971455 38.9195466 C-10.61918685 35.28964672 -10.6151112 31.66004158 -10.62831116 28.03014374 C-10.64238991 24.09919271 -10.62560359 20.16872652 -10.60559082 16.23779297 C-10.61451371 15.08488832 -10.62343659 13.93198368 -10.63262987 12.74414253 C-10.61698339 11.16836843 -10.61698339 11.16836843 -10.60102081 9.5607605 C-10.6003714 8.65311888 -10.59972199 7.74547726 -10.59905291 6.81033134 C-9.38333356 0.95282337 -5.30209981 -0.26658602 0 0 Z " fill="#324B5F" transform="translate(112.09765625,101.60546875)"/>
<path d="M0 0 C1.59937205 3.19874409 1.11188142 6.66352175 1.08229065 10.17495728 C1.07906152 11.03012857 1.07583239 11.88529986 1.07250541 12.76638544 C1.06038593 15.6485005 1.04102238 18.53052233 1.02172852 21.41259766 C1.01159043 23.47197769 1.00189625 25.53135995 0.99261475 27.59074402 C0.96608668 33.19584928 0.93331684 38.80090302 0.89946485 44.40596819 C0.86516831 50.25828788 0.83655874 56.11063524 0.80735779 61.96298218 C0.75115925 73.05167908 0.68981218 84.14034134 0.62663645 95.22900045 C0.55497781 107.85030995 0.48902669 120.47164723 0.42356598 133.09299016 C0.28874889 159.06202948 0.14672849 185.03102544 0 211 C4.95 211 9.9 211 15 211 C15 211.33 15 211.66 15 212 C-6.45 212 -27.9 212 -50 212 C-50.18064352 191.52023611 -50.32798697 171.04111799 -50.41449738 150.56075954 C-50.45573473 141.0512024 -50.51194703 131.54217566 -50.60351562 122.03295898 C-50.68329655 113.74391116 -50.7348758 105.45524748 -50.75270796 97.16582638 C-50.76313085 92.7770892 -50.78759322 88.38945088 -50.84584045 84.00106621 C-50.9002526 79.86803001 -50.91687155 75.7365422 -50.90486145 71.60318184 C-50.90705757 70.08862 -50.92290962 68.57400498 -50.9536438 67.05975342 C-51.17445784 55.61651403 -51.17445784 55.61651403 -48.26904297 51.6175251 C-46.26443077 49.85543929 -44.23694089 48.44636096 -42 47 C-40.91609268 45.94854511 -39.85670167 44.87033468 -38.83984375 43.75390625 C-38.12042603 42.96971313 -38.12042603 42.96971313 -37.38647461 42.16967773 C-36.90831299 41.63930908 -36.43015137 41.10894043 -35.9375 40.5625 C-35.42002197 39.99539307 -34.90254395 39.42828613 -34.36938477 38.84399414 C-31.14274247 35.29757171 -27.96926763 31.70779106 -24.83203125 28.08203125 C-22.46749888 25.39483348 -20.04776153 22.75955151 -17.625 20.125 C-14.07245965 16.25977258 -10.52400315 12.39132596 -7 8.5 C-5.948125 7.33984375 -5.948125 7.33984375 -4.875 6.15625 C-3.14489605 4.16663046 -1.55018297 2.13150158 0 0 Z " fill="#54BFEA" transform="translate(335,182)"/>
<path d="M0 0 C11.88 0 23.76 0 36 0 C36 63.69 36 127.38 36 193 C24.12 193 12.24 193 0 193 C0 129.31 0 65.62 0 0 Z " fill="#FDCF5B" transform="translate(350,201)"/>
<path d="M0 0 C10.89 0 21.78 0 33 0 C33 51.81 33 103.62 33 157 C21.12 157 9.24 157 -3 157 C-3.06769104 137.12035765 -3.12296664 117.24080844 -3.15543652 97.36108017 C-3.1709128 88.1308149 -3.19201685 78.90062625 -3.22631836 69.67041016 C-3.25619743 61.62640496 -3.27556946 53.58245526 -3.28226548 45.53839612 C-3.28618028 41.27815969 -3.29539634 37.01808202 -3.31719017 32.75789642 C-3.3375318 28.74915559 -3.34383855 24.74063912 -3.33932304 20.73185158 C-3.34014929 19.25964197 -3.34612889 17.78742496 -3.35761642 16.31525993 C-3.37252234 14.30672491 -3.36717054 12.29806986 -3.36076355 10.28948975 C-3.36352893 9.16490231 -3.36629431 8.04031487 -3.36914349 6.88164902 C-3 4 -3 4 0 0 Z " fill="#FD7059" transform="translate(252,237)"/>
<path d="M0 0 C11.88 0 23.76 0 36 0 C36.65065402 17.24678801 36.65065402 17.24678801 36.84375 24.71484375 C36.97478982 29.77158674 37.11615786 34.82624971 37.32714844 39.88037109 C38.74569504 74.48868987 38.74569504 74.48868987 28.35760498 88.12145996 C26.03605594 91.33382503 24.3137054 94.84815029 22.515625 98.37109375 C21.80270361 99.72171959 21.08787818 101.0713422 20.37109375 102.41992188 C19.66395244 103.75905647 18.95692152 105.09824937 18.25 106.4375 C16.81866529 109.14503828 15.38624459 111.85199983 13.953125 114.55859375 C13.61478638 115.19783783 13.27644775 115.83708191 12.92785645 116.49569702 C9.99807568 122.02242645 7.01439868 127.51894797 4 133 C2.68 132.67 1.36 132.34 0 132 C0 88.44 0 44.88 0 0 Z " fill="#4CDAC4" transform="translate(198,173)"/>
<path d="M0 0 C11.88 0 23.76 0 36 0 C36 33 36 66 36 100 C27.11025887 98.88878236 27.11025887 98.88878236 22.8125 97.4375 C19.40990432 96.28864298 16.60420764 95.67016403 13 96 C10.43307494 98.1616211 8.36042621 100.58512643 6.1640625 103.11328125 C5.53242188 103.83902344 4.90078125 104.56476563 4.25 105.3125 C3.65703125 106.00988281 3.0640625 106.70726562 2.453125 107.42578125 C1.97359375 107.94527344 1.4940625 108.46476562 1 109 C0.67 109 0.34 109 0 109 C0 73.03 0 37.06 0 0 Z " fill="#FEFEFE" transform="translate(147,201)"/>
<path d="M0 0 C12.21 0 24.42 0 37 0 C37.06774586 11.27430104 37.12279886 22.54846714 37.15543652 33.82292557 C37.17110003 39.05797124 37.19235094 44.29287058 37.22631836 49.52783203 C37.25888718 54.57878815 37.27684785 59.62960342 37.28463173 64.68065643 C37.29017968 66.60880501 37.30101334 68.53694579 37.31719017 70.46503448 C37.33893148 73.16338328 37.34196831 75.86114819 37.34057617 78.55957031 C37.351362 79.35870346 37.36214783 80.15783661 37.3732605 80.98118591 C37.34650861 85.76546306 37.01578805 86.97894926 34 91 C22.78 91 11.56 91 0 91 C0 60.97 0 30.94 0 0 Z " fill="#FB725C" transform="translate(248,134)"/>
<path d="M0 0 C2.41690876 0.47797076 4.83352763 0.9573322 7.25 1.4375 C8.27287109 1.63956055 8.27287109 1.63956055 9.31640625 1.84570312 C12.56915786 2.49309543 15.78126126 3.19531532 19 4 C19 30.4 19 56.8 19 84 C7.12 84 -4.76 84 -17 84 C-17.4411969 68.54919534 -17.4411969 68.54919534 -17.53710938 61.88476562 C-17.60249456 57.36319284 -17.67920805 52.84410435 -17.82983398 48.32446289 C-18.73140067 20.55925438 -18.73140067 20.55925438 -13.19587708 13.3223114 C-10.97833137 10.96483014 -8.56140695 8.9721374 -6 7 C-4.73481078 5.59410058 -3.49817195 4.16108033 -2.3125 2.6875 C-1.1678125 1.3571875 -1.1678125 1.3571875 0 0 Z " fill="#FEFEFE" transform="translate(164,309)"/>
<path d="M0 0 C0 55.44 0 110.88 0 168 C-4.62 168 -9.24 168 -14 168 C-14.18525593 147.65078068 -14.32798854 127.30179981 -14.41449738 106.95191097 C-14.45573422 97.50288611 -14.5119455 88.05439508 -14.60351562 78.60571289 C-14.68329817 70.36940276 -14.73487618 62.13347924 -14.75270796 53.89679343 C-14.76313059 49.5359988 -14.78759118 45.17631011 -14.84584045 40.81587029 C-14.90025522 36.70909631 -14.91687106 32.60388064 -14.90486145 28.4967804 C-14.90705746 26.99189335 -14.92290805 25.48695275 -14.9536438 23.98237801 C-15.17423337 12.62434474 -15.17423337 12.62434474 -12.26121521 8.59469795 C-10.25713913 6.81747716 -8.27645211 5.40187756 -6 4 C-5.030625 3.195625 -4.06125 2.39125 -3.0625 1.5625 C-1 0 -1 0 0 0 Z " fill="#83DAFE" transform="translate(299,225)"/>
<path d="M0 0 C0.33 0 0.66 0 1 0 C1 48.51 1 97.02 1 147 C-3.62 147 -8.24 147 -13 147 C-13.27972416 131.36034335 -13.49290499 115.72159612 -13.62174606 100.08005428 C-13.68320362 92.81462025 -13.76672763 85.55078393 -13.90527344 78.28637695 C-14.02620171 71.94260178 -14.10260204 65.59998485 -14.12906194 59.25508887 C-14.14449609 55.90485824 -14.18642268 52.56052242 -14.26876068 49.21088982 C-14.71336437 30.35007902 -11.70790404 16.77094627 -1 1 C-0.67 0.67 -0.34 0.34 0 0 Z " fill="#83DAFE" transform="translate(247,246)"/>
<path d="M0 0 C0.33 0 0.66 0 1 0 C1 20.79 1 41.58 1 63 C-8.24 63 -17.48 63 -27 63 C-29.20435169 32.83617904 -29.20435169 32.83617904 -22.80541992 25.01171875 C-20.52452987 22.70622742 -18.17431932 20.54018953 -15.68017578 18.46728516 C-13.091108 16.2062713 -11.11855793 13.64394879 -9 10.9375 C-8.29875 10.07382812 -7.5975 9.21015625 -6.875 8.3203125 C-6.25625 7.55460937 -5.6375 6.78890625 -5 6 C-3.35886025 3.9722456 -1.70675614 1.97343679 0 0 Z " fill="#84DAFE" transform="translate(146,330)"/>
<path d="M0 0 C8 1 8 1 15 4 C15 28.75 15 53.5 15 79 C10.05 79 5.1 79 0 79 C0 52.93 0 26.86 0 0 Z " fill="#83DAFD" transform="translate(183,314)"/>
<path d="M0 0 C10.56 0 21.12 0 32 0 C28.23197196 5.02403738 25.14565061 8.99563829 20.76953125 13.23828125 C18.39256542 15.60475275 16.23080063 18.13095681 14.0390625 20.66796875 C11.43633391 23.6446526 8.78744059 26.57672961 6.125 29.5 C5.39168457 30.31150513 5.39168457 30.31150513 4.64355469 31.1394043 C3.45007138 32.44580173 2.22763333 33.72564014 1 35 C0.67 35 0.34 35 0 35 C0 23.45 0 11.9 0 0 Z " fill="#55BFEA" transform="translate(299,169)"/>
</svg>
