<?xml version="1.0" encoding="UTF-8"?>
<svg version="1.1" xmlns="http://www.w3.org/2000/svg" width="600" height="600">
<path d="M0 0 C198 0 396 0 600 0 C600 198 600 396 600 600 C402 600 204 600 0 600 C0 402 0 204 0 0 Z " fill="#29388F" transform="translate(0,0)"/>
<path d="M0 0 C198 0 396 0 600 0 C600 198 600 396 600 600 C402 600 204 600 0 600 C0 402 0 204 0 0 Z M179 52 C177.81905762 52.56992676 177.81905762 52.56992676 176.61425781 53.15136719 C155.46250902 63.50371502 135.57416409 76.96982075 118.25 92.93359375 C116.2655318 94.75613486 114.24214108 96.50783558 112.1875 98.25 C102.54171946 106.6851765 93.91429096 115.93143293 86 126 C85.39414063 126.71542969 84.78828125 127.43085937 84.1640625 128.16796875 C63.54495951 152.74559151 48.1732507 182.69026036 38 213 C37.60385498 214.1763501 37.60385498 214.1763501 37.19970703 215.37646484 C33.9065344 225.32522695 31.34605135 235.35795413 29.25 245.625 C29.05132324 246.58873535 28.85264648 247.5524707 28.64794922 248.54541016 C25.61647393 264.13919436 24.66928071 279.5684938 24.73925781 295.43041992 C24.74995167 298.29953319 24.73930423 301.16801521 24.7265625 304.03710938 C24.7117605 321.45553097 25.85483081 338.73286495 29.4375 355.8125 C29.68846436 357.01189209 29.93942871 358.21128418 30.19799805 359.44702148 C38.23993681 395.66025691 53.98376828 431.16090933 76 461 C76.61391602 461.83917969 76.61391602 461.83917969 77.24023438 462.6953125 C91.18941936 481.65362511 107.29806048 499.64446077 126 514 C127.26245946 515.00167131 128.52411827 516.00435222 129.78515625 517.0078125 C158.01390335 539.2759344 190.12676052 555.98570076 224.85351562 565.41455078 C227.11015799 566.03004537 229.35944122 566.6690449 231.609375 567.30859375 C249.55546911 572.31865275 267.77894168 575.14455628 286.43359375 575.16796875 C287.39161392 575.17129715 288.34963409 575.17462555 289.33668518 575.17805481 C291.3526258 575.18308077 293.36857461 575.18546449 295.38452148 575.18530273 C298.39907319 575.18747234 301.41324792 575.20562864 304.42773438 575.22460938 C324.0326791 575.28226034 342.89849792 573.45689548 362 569 C362.84191895 568.8045459 363.68383789 568.6090918 364.55126953 568.40771484 C401.04711114 559.70374353 435.0487124 543.513486 465 521 C465.56638184 520.57783203 466.13276367 520.15566406 466.71630859 519.72070312 C476.42037851 512.44743573 485.28366071 504.42078667 494 496 C494.52255371 495.49936035 495.04510742 494.9987207 495.58349609 494.48291016 C502.27746582 488.05205093 508.29089411 481.31278732 514 474 C514.72292236 473.09169434 514.72292236 473.09169434 515.46044922 472.16503906 C534.12029968 448.70793818 548.69892198 423.0648354 558.95336914 394.87207031 C559.69046238 392.8494053 560.44665832 390.8336508 561.21655273 388.82324219 C564.43778072 380.22425884 566.72780489 371.62193121 568.68530273 362.66162109 C569.18323877 360.39440239 569.70296155 358.13295872 570.22460938 355.87109375 C574.26433483 337.94373779 575.33986827 320.1686938 575.26074219 301.82666016 C575.24998148 298.86991001 575.26073718 295.91376371 575.2734375 292.95703125 C575.33106928 220.99215204 543.13480369 153.21097351 492.875 102.625 C486.8769185 96.67279158 480.70803941 91.14906611 474 86 C472.73754054 84.99832869 471.47588173 83.99564778 470.21484375 82.9921875 C447.20741066 64.84601552 421.94157062 50.96938271 394.43554688 40.90039062 C392.39828821 40.14724207 390.37663821 39.35204873 388.359375 38.546875 C322.16290873 12.78568862 241.75163125 21.68798347 179 52 Z " fill="#FEFEFE" transform="translate(0,0)"/>
<path d="M0 0 C3.08489722 0.21287997 6.17087649 0.40903324 9.25665283 0.60870361 C30.07377772 2.00301775 50.76884998 4.08723532 71.34649658 7.57354736 C72.53557617 7.76666504 73.72465576 7.95978271 74.94976807 8.15875244 C76.61181274 8.45495483 76.61181274 8.45495483 78.30743408 8.75714111 C79.28244873 8.92657227 80.25746338 9.09600342 81.26202393 9.27056885 C84.51531322 10.30975704 86.4748378 11.83120572 88.97149658 14.13604736 C90.2681358 16.72932579 90.09153228 18.60012805 90.08502197 21.50372314 C90.08494644 22.62473419 90.08487091 23.74574524 90.08479309 24.90072632 C90.07963181 26.11533539 90.07447052 27.32994446 90.06915283 28.58135986 C90.06703041 30.44158279 90.06703041 30.44158279 90.06486511 32.33938599 C90.06020755 35.6372287 90.05122098 38.93502283 90.04016113 42.23284912 C90.0299339 45.59771123 90.02536468 48.96258044 90.02032471 52.32745361 C90.00927927 58.9303373 89.99252905 65.53318835 89.97149658 72.13604736 C90.54593506 72.10986328 91.12037354 72.0836792 91.71221924 72.05670166 C94.3400283 71.95212937 96.96739889 71.88753792 99.59649658 71.82354736 C100.50012939 71.78165283 101.40376221 71.7397583 102.33477783 71.69659424 C106.83063122 71.61455312 109.97591983 71.61591534 113.55743408 74.53057861 C117.27493788 78.54283594 117.0714683 80.73757455 116.97149658 86.13604736 C118.08524658 86.22885986 118.08524658 86.22885986 119.22149658 86.32354736 C122.9660423 87.42989042 123.90342523 88.8423416 125.97149658 92.13604736 C126.35038062 95.00044754 126.51060403 97.46733008 126.46759033 100.32354736 C126.46904556 101.10367188 126.47050079 101.88379639 126.47200012 102.68756104 C126.47034535 104.33156074 126.45883128 105.97557662 126.43804932 107.6194458 C126.40908652 110.12825681 126.41744959 112.63495336 126.43048096 115.14385986 C126.42424296 116.74543258 126.41585154 118.34699865 126.40509033 119.94854736 C126.40802597 120.69451172 126.41096161 121.44047607 126.41398621 122.20904541 C126.33335418 126.68577135 125.75619835 129.59180704 122.97149658 133.13604736 C118.10250439 136.38204216 112.65935922 135.85593975 106.97149658 135.13604736 C103.91534275 133.47186643 102.52260301 131.23826022 100.97149658 128.13604736 C100.83613556 125.49585396 100.75884358 122.88328672 100.73321533 120.24151611 C100.72514359 119.45714676 100.71707184 118.6727774 100.70875549 117.86463928 C100.69491597 116.20277109 100.68419322 114.5408745 100.67633057 112.87896729 C100.65913305 110.34366601 100.61525003 107.80967422 100.57110596 105.27471924 C100.56097743 103.65949445 100.55246182 102.04425857 100.54571533 100.42901611 C100.52820724 99.67364059 100.51069916 98.91826508 100.49266052 98.13999939 C100.50770158 94.46959271 100.85713815 92.3221535 102.79498291 89.16851807 C105.47940474 86.66175287 107.36068578 86.38223901 110.97149658 86.13604736 C110.31149658 83.82604736 109.65149658 81.51604736 108.97149658 79.13604736 C102.70149658 78.80604736 96.43149658 78.47604736 89.97149658 78.13604736 C89.98037903 80.84940308 89.98926147 83.56275879 89.99841309 86.3583374 C90.08012565 111.90305067 90.1396676 137.44774673 90.17874527 162.99256134 C90.19937049 176.12605448 90.22749052 189.25945172 90.27325439 202.3928833 C90.31312315 213.83997458 90.33892968 225.2869964 90.34785056 236.73415518 C90.35306518 242.79535616 90.36532101 248.85635843 90.39441681 254.91749573 C90.42158627 260.62362818 90.42993835 266.32948024 90.42392731 272.03567123 C90.42502684 274.12865091 90.43297142 276.22164006 90.44831848 278.31456375 C90.46827007 281.17601465 90.46341668 284.03641204 90.45251465 286.89788818 C90.46416601 287.72281218 90.47581738 288.54773618 90.48782182 289.39765787 C90.41995927 296.00402921 88.45125751 301.02453782 84.33087158 306.19464111 C83.53423096 306.87719971 83.53423096 306.87719971 82.72149658 307.57354736 C82.20071533 308.0466333 81.67993408 308.51971924 81.14337158 309.00714111 C77.84590204 310.72111359 74.66092828 310.80307998 70.97149658 311.13604736 C70.98720703 311.71572266 71.00291748 312.29539795 71.019104 312.89263916 C71.08172449 315.53617475 71.12057176 318.17955391 71.15899658 320.82354736 C71.1841333 321.73555908 71.20927002 322.6475708 71.23516846 323.58721924 C71.33031794 332.30925539 71.33031794 332.30925539 67.97149658 336.13604736 C62.88528513 339.34959203 56.90704618 338.54497089 51.09649658 338.57354736 C49.92473877 338.60641846 48.75298096 338.63928955 47.54571533 338.67315674 C37.90576674 338.73333803 37.90576674 338.73333803 34.21368408 335.79620361 C28.11094613 328.55584726 30.97149658 323.39227187 30.97149658 312.13604736 C-25.12850342 312.13604736 -81.22850342 312.13604736 -139.02850342 312.13604736 C-139.02850342 318.07604736 -139.02850342 324.01604736 -139.02850342 330.13604736 C-143.68157645 337.11565691 -143.68157645 337.11565691 -147.02850342 338.13604736 C-151.32948399 338.588542 -155.64365357 338.50634148 -159.96600342 338.51104736 C-161.14614014 338.53553955 -162.32627686 338.56003174 -163.54217529 338.58526611 C-164.68106201 338.5891333 -165.81994873 338.59300049 -166.99334717 338.59698486 C-168.03096191 338.60520264 -169.06857666 338.61342041 -170.13763428 338.62188721 C-173.75081603 338.01465541 -175.41128472 336.64654225 -178.02850342 334.13604736 C-179.20319786 331.78665848 -179.22885231 330.18531532 -179.34490967 327.56573486 C-179.40775146 326.22188721 -179.40775146 326.22188721 -179.47186279 324.85089111 C-179.5111792 323.91374268 -179.55049561 322.97659424 -179.59100342 322.01104736 C-179.63418701 321.06616455 -179.67737061 320.12128174 -179.72186279 319.14776611 C-179.82809414 316.81067644 -179.93013518 314.47347906 -180.02850342 312.13604736 C-180.63250977 311.96516602 -181.23651611 311.79428467 -181.85882568 311.6182251 C-186.51317962 310.20461806 -189.86854049 309.1442153 -192.96600342 305.19854736 C-193.51127686 304.52952393 -194.05655029 303.86050049 -194.61834717 303.17120361 C-198.0338929 298.2418426 -198.31024886 294.29008445 -198.26901245 288.34094238 C-198.2707213 287.44322672 -198.27243015 286.54551105 -198.27419078 285.62059188 C-198.27749031 282.60645729 -198.2664743 279.59254433 -198.2555542 276.57843018 C-198.25499019 274.42023219 -198.25530645 272.26203382 -198.25643921 270.10383606 C-198.25701411 264.23852403 -198.24523759 258.37329344 -198.23129129 252.50800037 C-198.21880678 246.38074466 -198.21761524 240.25348717 -198.21524048 234.1262207 C-198.209019 222.52052338 -198.19259915 210.91486364 -198.1725415 199.30918288 C-198.15020326 186.0977385 -198.13919429 172.88629234 -198.12915063 159.67483377 C-198.10823351 132.49521674 -198.0726427 105.31563574 -198.02850342 78.13604736 C-204.29850342 78.46604736 -210.56850342 78.79604736 -217.02850342 79.13604736 C-217.35850342 81.44604736 -217.68850342 83.75604736 -218.02850342 86.13604736 C-216.91475342 86.22885986 -216.91475342 86.22885986 -215.77850342 86.32354736 C-212.03536176 87.42947558 -211.09848218 88.84563909 -209.02850342 92.13604736 C-208.63769517 94.98802587 -208.46623622 97.44281392 -208.49725342 100.28839111 C-208.49342651 101.06614395 -208.48959961 101.84389679 -208.48565674 102.6452179 C-208.48294308 104.28499653 -208.49026609 105.92481886 -208.50701904 107.56451416 C-208.52841017 110.06265739 -208.50721667 112.55791575 -208.48162842 115.05596924 C-208.48427236 116.65428283 -208.48939872 118.25259464 -208.49725342 119.85089111 C-208.48915649 120.59169418 -208.48105957 121.33249725 -208.47271729 122.0957489 C-208.56465177 127.23001811 -209.78089143 130.18531677 -213.02850342 134.13604736 C-215.94714665 135.59536898 -218.59109328 135.4612468 -221.84100342 135.57354736 C-223.06432373 135.6341333 -224.28764404 135.69471924 -225.54803467 135.75714111 C-229.40530964 135.06880585 -230.62017276 134.01745904 -232.99333191 130.9733429 C-234.85929698 127.66149626 -234.74220537 124.39247897 -234.69256592 120.66729736 C-234.69734955 119.86876343 -234.70213318 119.07022949 -234.70706177 118.24749756 C-234.71044983 116.56660989 -234.70132404 114.88565535 -234.68035889 113.20489502 C-234.65357276 110.64268055 -234.68013878 108.08484553 -234.71209717 105.52276611 C-234.70879287 103.8834336 -234.70238621 102.24410379 -234.69256592 100.60479736 C-234.70268707 99.84525757 -234.71280823 99.08571777 -234.72323608 98.30316162 C-234.63602611 94.31390451 -234.16761124 91.81119988 -231.66278076 88.63018799 C-229.02850342 86.13604736 -229.02850342 86.13604736 -226.21600342 85.76104736 C-225.13319092 85.94667236 -225.13319092 85.94667236 -224.02850342 86.13604736 C-224.09811279 85.54436768 -224.16772217 84.95268799 -224.23944092 84.34307861 C-224.29358154 83.5528833 -224.34772217 82.76268799 -224.40350342 81.94854736 C-224.47311279 81.17124268 -224.54272217 80.39393799 -224.61444092 79.59307861 C-223.88434707 76.53155176 -222.41964275 75.12594813 -219.99520874 73.18492126 C-216.12207793 71.11932161 -211.92918915 71.62531657 -207.65350342 71.82354736 C-206.72666748 71.84610596 -205.79983154 71.86866455 -204.84490967 71.89190674 C-202.57108007 71.95051059 -200.30065455 72.03247806 -198.02850342 72.13604736 C-198.03738586 71.43305008 -198.04626831 70.7300528 -198.05541992 70.00575256 C-198.13567336 63.37040739 -198.19652203 56.73519827 -198.23575211 50.09947681 C-198.25659918 46.68819738 -198.28486239 43.27732002 -198.33026123 39.86627197 C-198.38216301 35.94192368 -198.40147263 32.0177364 -198.41912842 28.09307861 C-198.43977356 26.87207962 -198.4604187 25.65108063 -198.48168945 24.39308167 C-198.48199158 23.25227646 -198.4822937 22.11147125 -198.48260498 20.93609619 C-198.49148743 19.93460037 -198.50036987 18.93310455 -198.50952148 17.90126038 C-197.89415753 14.36373749 -196.48818408 12.70302407 -194.02850342 10.13604736 C-190.74551981 8.43109244 -187.68314097 7.8053483 -184.02850342 7.38995361 C-183.06976318 7.27643555 -182.11102295 7.16291748 -181.12322998 7.04595947 C-180.10197021 6.93131348 -179.08071045 6.81666748 -178.02850342 6.69854736 C-175.85643134 6.44240059 -173.68455876 6.18455697 -171.51287842 5.92510986 C-169.8780249 5.73030029 -169.8780249 5.73030029 -168.21014404 5.53155518 C-162.80509643 4.85965699 -157.41857971 4.0600814 -152.03631592 3.22613525 C-135.43646893 0.74846741 -118.72196037 -0.31033472 -101.96600342 -0.98895264 C-100.96048431 -1.03064575 -99.95496521 -1.07233887 -98.91897583 -1.11529541 C-65.8699829 -2.4594591 -32.99704489 -2.30581281 0 0 Z " fill="#FCFCFD" transform="translate(354.02850341796875,131.86395263671875)"/>
<path d="M0 0 C2.3431513 -0.00485991 4.68629845 -0.0123025 7.0294342 -0.02212524 C13.37444089 -0.04089312 19.71882785 -0.02213618 26.06378603 0.00453901 C32.03614392 0.02491479 38.00846523 0.01993712 43.98084466 0.01613398 C55.81366873 0.00976507 67.64625141 0.03302859 79.47900391 0.07226562 C90.94815416 0.11028669 102.4170217 0.12443494 113.88623047 0.11328125 C126.39332015 0.10115411 138.90028578 0.10153956 151.4073652 0.12425292 C158.02167497 0.13621913 164.63591004 0.14359841 171.2502327 0.13831711 C177.46709448 0.13454695 183.68359422 0.15079244 189.90037346 0.1824379 C192.18038752 0.19091467 194.46043834 0.19263067 196.74046135 0.1870575 C199.85541572 0.18059911 202.96929329 0.1988118 206.08413696 0.22323608 C206.98394968 0.21567744 207.88376239 0.20811879 208.81084216 0.20033109 C215.72559975 0.29608924 220.57461208 2.17953283 226.11981773 6.26966572 C230.84742896 11.45296517 230.89652276 16.22816346 230.796875 23.0324707 C230.80417633 24.14872833 230.81147766 25.26498596 230.81900024 26.41506958 C230.8351673 30.0919546 230.80803647 33.76706478 230.77880859 37.44384766 C230.77777105 40.0025889 230.77880776 42.56133175 230.78182983 45.12007141 C230.7816506 50.47573688 230.76151244 55.83078296 230.72460938 61.1862793 C230.68221411 67.37418414 230.67526996 73.56134669 230.68773329 79.74936742 C230.69912639 85.71191298 230.68761625 91.6742353 230.6653862 97.6367588 C230.65768081 100.17053997 230.65538635 102.70434349 230.65855789 105.23813438 C230.6592981 108.77418197 230.63409466 112.30909352 230.6015625 115.8449707 C230.60651733 116.89492722 230.61147217 117.94488373 230.61657715 119.0266571 C230.5124639 126.10251025 230.5124639 126.10251025 228.16293335 129.38069153 C225.64078488 131.01051734 223.91197852 131.44546913 220.92724609 131.80712891 C219.77869141 131.95408203 218.63013672 132.10103516 217.44677734 132.25244141 C215.98209496 132.4179383 214.5172296 132.58181908 213.05224609 132.74462891 C211.09775436 132.97063302 209.14333288 133.19724516 207.18896484 133.42431641 C203.98446112 133.79572466 200.77989762 134.16398053 197.57324219 134.51635742 C190.59709085 135.2920274 183.64817179 136.20628407 176.69677734 137.17431641 C132.58874155 143.26654859 89.33856209 146.40409556 45.05224609 140.74462891 C43.08097029 140.50180444 41.10961934 140.25958891 39.13818359 140.01806641 C36.29361479 139.66616099 33.44981815 139.31004446 30.60717773 138.94287109 C19.73846533 137.54279064 8.8445737 136.37031361 -2.04980469 135.19018555 C-5.65018311 134.79905236 -9.24901173 134.39575318 -12.84698486 133.98309326 C-14.25878073 133.82283624 -15.67102952 133.66652465 -17.0836792 133.51397705 C-19.13233118 133.29123961 -21.17863652 133.05297966 -23.22509766 132.81103516 C-24.9903479 132.61102905 -24.9903479 132.61102905 -26.79125977 132.40698242 C-31.64296392 131.38890884 -34.19805498 129.8691773 -36.94775391 125.74462891 C-37.20502281 123.6458931 -37.20502281 123.6458931 -37.21517944 121.17901611 C-37.22370941 120.24262299 -37.23223938 119.30622986 -37.24102783 118.34146118 C-37.24012146 117.31596161 -37.23921509 116.29046204 -37.23828125 115.23388672 C-37.24499847 114.15229279 -37.2517157 113.07069885 -37.25863647 111.95632935 C-37.27767996 108.37009116 -37.28154417 104.78403955 -37.28369141 101.19775391 C-37.29011589 98.70774254 -37.29684398 96.21773193 -37.30386353 93.72772217 C-37.31585287 88.50222562 -37.31962828 83.27677652 -37.31835938 78.05126953 C-37.31729191 72.68721646 -37.33135337 67.32345165 -37.359375 61.95947266 C-37.39271645 55.48503625 -37.40647052 49.01085887 -37.40513992 42.53633881 C-37.40749936 40.06920661 -37.41634209 37.60207174 -37.43180466 35.13498688 C-37.45142357 31.68067296 -37.44564132 28.22727828 -37.43359375 24.77294922 C-37.44483276 23.75554657 -37.45607178 22.73814392 -37.46765137 21.68991089 C-37.4032388 14.41345634 -36.34326738 10.23693492 -31.26422119 5.01310539 C-22.52380126 -1.78923754 -10.45751625 -0.07581637 0 0 Z " fill="#29388F" transform="translate(202.94775390625,186.25537109375)"/>
<path d="M0 0 C1.3038414 -0.00983414 2.6076828 -0.01966827 3.95103455 -0.02980042 C5.38894916 -0.02042914 6.82686116 -0.01064986 8.26477051 -0.00050354 C9.78447469 -0.00428803 11.30417543 -0.00978915 12.8238678 -0.01687622 C16.94582367 -0.03083133 21.06736215 -0.01966086 25.18929482 -0.00316501 C29.50445504 0.01069194 33.81959118 0.00422468 38.13476562 0.0007019 C45.3811312 -0.00199971 52.62733108 0.01147116 59.87365723 0.03465271 C68.24945413 0.06126218 76.62497402 0.06300939 85.0007987 0.05126435 C93.06059148 0.04048222 101.12028413 0.04667704 109.18006897 0.06081963 C112.60899728 0.06657566 116.03785223 0.06649976 119.46678162 0.06175423 C123.50520076 0.05697915 127.54331688 0.06710794 131.58167839 0.08870888 C133.06312475 0.09426971 134.54460027 0.09474848 136.02604866 0.08975601 C138.04935492 0.08379298 140.07269059 0.09815572 142.09594727 0.11352539 C143.79382763 0.11717023 143.79382763 0.11717023 145.52600861 0.12088871 C148.92286539 0.54838587 150.81329948 1.47384054 153.54797363 3.50120544 C155.63337517 7.67200851 155.00224477 12.95849409 154.54797363 17.50120544 C152.7399396 20.57486331 151.68757899 21.93140276 148.54797363 23.50120544 C146.51960833 23.60596757 144.48775523 23.64513138 142.45671082 23.65510559 C141.15699341 23.66370605 139.857276 23.67230652 138.51817322 23.6811676 C137.06936685 23.68560297 135.62056007 23.68990132 134.17175293 23.69407654 C132.65249442 23.7019764 131.13323779 23.71024528 129.61398315 23.71885681 C124.61673783 23.74508902 119.61948406 23.76038502 114.62219238 23.77464294 C112.90302843 23.78000202 111.18386454 23.78537952 109.4647007 23.7907753 C102.31457464 23.81240524 95.16445085 23.83114277 88.01430035 23.84239769 C77.76109122 23.85864232 67.50826073 23.891831 57.25519437 23.94879854 C50.04919064 23.98747369 42.84328829 24.00702745 35.63718349 24.01231825 C31.33157083 24.0159749 27.02636191 24.02802898 22.72086143 24.06042099 C18.67010352 24.09045951 14.6199945 24.0968289 10.56914902 24.08503723 C9.08283255 24.08481614 7.59648634 24.09315059 6.11027336 24.11069107 C4.08037103 24.13334326 2.05017506 24.12211551 0.02018738 24.10920715 C-1.68353767 24.11417237 -1.68353767 24.11417237 -3.4216814 24.1192379 C-7.4319286 23.30135645 -8.93023453 21.65804335 -11.45202637 18.50120544 C-12.11608887 15.09104919 -12.11608887 15.09104919 -12.07702637 11.43870544 C-12.08991699 10.23085388 -12.10280762 9.02300232 -12.11608887 7.77854919 C-11.45202637 4.50120544 -11.45202637 4.50120544 -9.31377411 2.3276968 C-5.89980758 0.1487555 -4.02395435 0.000744 0 0 Z " fill="#2C3A8D" transform="translate(228.4520263671875,149.49879455566406)"/>
<path d="M0 0 C0.88733826 0.00404846 1.77467651 0.00809692 2.68890381 0.01226807 C4.08903717 0.00701111 4.08903717 0.00701111 5.51745605 0.00164795 C8.61374268 -0.00717989 11.70980222 -0.00131648 14.80609131 0.00543213 C16.95078577 0.00408578 19.09547993 0.00214551 21.24017334 -0.00036621 C25.73938904 -0.0033189 30.23852544 0.00098485 34.73773193 0.01031494 C40.51519075 0.02170952 46.29246377 0.01515083 52.06991577 0.00317001 C56.49987192 -0.00404466 60.92978376 -0.00176246 65.35974121 0.0034256 C67.49047874 0.00476318 69.62122024 0.00311059 71.75195312 -0.00153351 C74.72583732 -0.00659227 77.69941736 0.00110237 80.67327881 0.01226807 C81.56061707 0.0082196 82.44795532 0.00417114 83.36218262 0 C89.45256371 0.04252953 89.45256371 0.04252953 91.68109131 2.27105713 C91.94671631 5.23980713 91.94671631 5.23980713 91.93109131 8.77105713 C91.93882568 10.51902588 91.93882568 10.51902588 91.94671631 12.30230713 C91.68109131 15.27105713 91.68109131 15.27105713 89.68109131 17.27105713 C86.64844756 17.4699919 83.70708565 17.54368787 80.67327881 17.52984619 C79.27314545 17.53510315 79.27314545 17.53510315 77.84472656 17.54046631 C74.74843994 17.54929415 71.6523804 17.54343074 68.55609131 17.53668213 C66.41139685 17.53802848 64.26670269 17.53996875 62.12200928 17.54248047 C57.62279358 17.54543316 53.12365718 17.54112941 48.62445068 17.53179932 C42.84699186 17.52040474 37.06971884 17.52696343 31.29226685 17.53894424 C26.8623107 17.54615891 22.43239886 17.54387672 18.00244141 17.53868866 C15.87170388 17.53735107 13.74096238 17.53900366 11.61022949 17.54364777 C8.6363453 17.54870653 5.66276525 17.54101189 2.68890381 17.52984619 C1.80156555 17.53389465 0.91422729 17.53794312 0 17.54211426 C-6.0903811 17.49958472 -6.0903811 17.49958472 -8.31890869 15.27105713 C-8.58453369 12.30230713 -8.58453369 12.30230713 -8.56890869 8.77105713 C-8.57406494 7.60574463 -8.57922119 6.44043213 -8.58453369 5.23980713 C-8.07272184 -0.48044299 -5.01344608 0.03500923 0 0 Z " fill="#28378B" transform="translate(258.31890869140625,398.72894287109375)"/>
<path d="M0 0 C2.55393379 1.79243977 3.67353863 3.24383157 4.703125 6.1953125 C4.83608102 9.85160307 4.63459253 12.13315437 2.171875 14.94140625 C-2.39409779 18.97532713 -5.89262011 20.56901699 -12.16796875 20.4765625 C-16.87367769 19.85489086 -20.24090107 17.48973216 -23.234375 13.8203125 C-24.55116076 10.56707708 -24.86530805 8.67696495 -24.296875 5.1953125 C-18.18436581 -3.88612973 -9.31161627 -5.24236664 0 0 Z " fill="#2F3D8D" transform="translate(228.296875,365.8046875)"/>
<path d="M0 0 C3.65866897 1.73936721 5.40416413 2.75273058 7.70703125 6.20703125 C8.37728469 9.32104058 8.42187299 12.09879345 7.70703125 15.20703125 C5.01619761 18.60043243 1.20777522 21.89634819 -3.2109375 22.4453125 C-9.16087119 22.63988864 -12.47841108 21.76980393 -17.29296875 18.20703125 C-19.51600583 15.48201806 -20.20467984 13.72572861 -20.79296875 10.26953125 C-20.10672591 6.06629387 -18.2695476 4.1836101 -15.29296875 1.20703125 C-10.48601095 -1.68896382 -5.2739088 -1.82385603 0 0 Z " fill="#2D3B8D" transform="translate(387.29296875,363.79296875)"/>
<path d="M0 0 C2.9375 1.25 2.9375 1.25 5 3 C5.763125 3.556875 6.52625 4.11375 7.3125 4.6875 C9.33317525 7.45657349 9.62840336 9.6267554 9.45703125 13.03515625 C8.67338056 16.40418443 6.65839183 17.94578813 4 20 C-0.72449086 22.85479873 -5.6381349 22.64404458 -11 22 C-14.91075925 20.01031547 -16.57689098 18.63466354 -19 15 C-19.3404574 11.98452014 -19.56747447 9.9054693 -19 7 C-13.41802234 0.06024399 -8.49379342 -0.8107145 0 0 Z " fill="#2C3B8C" transform="translate(422,352)"/>
<path d="M0 0 C3.208232 2.01660297 5.0767618 4.2390461 7.1875 7.375 C7.76434834 10.90819608 7.43877684 12.77472755 6.0625 16.0625 C3.08019313 19.74067847 0.27791133 21.11992005 -4.4375 21.6953125 C-10.40116745 21.93839677 -14.19502336 21.51888929 -18.8125 17.375 C-21.27391247 13.6828813 -21.49900207 10.66145195 -20.8125 6.375 C-15.96276151 -1.59242752 -8.49899229 -1.88866495 0 0 Z " fill="#2C398C" transform="translate(189.8125,352.625)"/>
<path d="M0 0 C0.98109556 -0.00256327 1.96219113 -0.00512655 2.97301686 -0.0077675 C6.25741695 -0.01270522 9.54135643 0.00378772 12.82571411 0.02018738 C15.18124887 0.02103365 17.53678443 0.02055851 19.89231873 0.01885986 C26.28645685 0.0179985 32.68042643 0.03564735 39.07452536 0.05658174 C45.07995181 0.07342593 51.08537845 0.07645108 57.09082402 0.07953735 C68.9837684 0.08609908 80.87665095 0.10605267 92.76956177 0.13444519 C104.3206654 0.16199298 115.87175222 0.18322303 127.42288208 0.19596863 C128.13519768 0.1967568 128.84751328 0.19754497 129.58141421 0.19835702 C133.15498333 0.20227221 136.72855256 0.20606331 140.30212188 0.20979273 C169.93649178 0.24087997 199.57079727 0.29393159 229.20510864 0.36076355 C229.53510864 1.02076355 229.86510864 1.68076355 230.20510864 2.36076355 C228.976132 2.3640737 227.74715536 2.36738384 226.480937 2.3707943 C197.32616623 2.4497634 168.17144121 2.53896477 139.01674203 2.64081516 C135.430524 2.65333446 131.84430568 2.66576717 128.25808716 2.67814636 C127.54411716 2.68061236 126.83014716 2.68307835 126.09454171 2.68561907 C114.52473209 2.72537361 102.95491268 2.758109 91.38507452 2.78826337 C79.5187703 2.81934616 67.65250778 2.85794188 55.78625041 2.90355361 C49.11887873 2.92896511 42.45153035 2.95062469 35.78412437 2.96410751 C29.51415605 2.97689591 23.24428926 2.99891528 16.97437668 3.02814674 C14.66807843 3.0372478 12.36176382 3.0429186 10.05544853 3.04497719 C6.91659455 3.04828191 3.77803161 3.06371062 0.63923645 3.08229065 C-0.28196167 3.08035591 -1.20315979 3.07842118 -2.152273 3.07642782 C-3.41003003 3.08762606 -3.41003003 3.08762606 -4.6931963 3.09905052 C-5.78052546 3.102468 -5.78052546 3.102468 -6.88982087 3.10595453 C-9.123974 3.26273743 -9.123974 3.26273743 -11.79489136 5.36076355 C-12.45489136 5.36076355 -13.11489136 5.36076355 -13.79489136 5.36076355 C-14.12489136 6.02076355 -14.45489136 6.68076355 -14.79489136 7.36076355 C-16.44489136 7.36076355 -18.09489136 7.36076355 -19.79489136 7.36076355 C-13.92746189 0.81632299 -8.36228285 -0.08008466 0 0 Z " fill="#323D7D" transform="translate(189.79489135742188,186.6392364501953)"/>
<path d="M0 0 C5.61 0 11.22 0 17 0 C17 0.33 17 0.66 17 1 C12.05 1 7.1 1 2 1 C2.33 72.61 2.66 144.22 3 218 C2.34 218 1.68 218 1 218 C0.505 218.99 0.505 218.99 0 220 C0 147.4 0 74.8 0 0 Z " fill="#3D4684" transform="translate(444,210)"/>
<path d="M0 0 C0.61875 0.33 1.2375 0.66 1.875 1 C1.215 1.66 0.555 2.32 -0.125 3 C-0.455 2.67 -0.785 2.34 -1.125 2 C-3.14094582 1.76572222 -5.163474 1.58663876 -7.1875 1.4375 C-8.29222656 1.35371094 -9.39695313 1.26992188 -10.53515625 1.18359375 C-11.38980469 1.12300781 -12.24445313 1.06242187 -13.125 1 C-13.25132812 1.79792969 -13.37765625 2.59585937 -13.5078125 3.41796875 C-14.125 6 -14.125 6 -16 7.3125 C-18.125 8 -18.125 8 -21.125 8 C-20.1967492 4.65829712 -19.19568171 3.06538058 -16.625 0.6875 C-11.10231343 -1.97522388 -5.80536926 -1.85771816 0 0 Z " fill="#364186" transform="translate(190.125,353)"/>
<path d="M0 0 C0.79921875 0.01804687 1.5984375 0.03609375 2.421875 0.0546875 C3.02515625 0.07789063 3.6284375 0.10109375 4.25 0.125 C4.25 0.455 4.25 0.785 4.25 1.125 C1.94 1.125 -0.37 1.125 -2.75 1.125 C-2.75 1.785 -2.75 2.445 -2.75 3.125 C-4.4515625 3.805625 -4.4515625 3.805625 -6.1875 4.5 C-9.79721692 5.69595806 -9.79721692 5.69595806 -10.75 8.125 C-11.09092041 13.45467208 -11.09092041 13.45467208 -8.75 18.125 C-9.74 18.125 -10.73 18.125 -11.75 18.125 C-13.85958512 14.69692418 -14.30884699 12.11676419 -13.75 8.125 C-9.90173246 2.56639133 -6.81177223 -0.20034624 0 0 Z " fill="#4C558C" transform="translate(380.75,362.875)"/>
<path d="M0 0 C4.02237466 7.10672518 1.81646374 16.19985531 1 24 C0.67 24 0.34 24 0 24 C-1.33257403 7.1070615 -1.33257403 7.1070615 0 0 Z " fill="#3E468A" transform="translate(26,268)"/>
<path d="M0 0 C0.7425 0.495 0.7425 0.495 1.5 1 C-1.16808204 2.33404102 -3.54023248 2.01401574 -6.46484375 1.9609375 C-8.65875598 1.93734228 -8.65875598 1.93734228 -11.375 2.625 C-12.07625 2.74875 -12.7775 2.8725 -13.5 3 C-14.16 2.34 -14.82 1.68 -15.5 1 C-10.50367864 -1.49816068 -5.28145731 -2.11258292 0 0 Z " fill="#3E4684" transform="translate(224.5,364)"/>
<path d="M0 0 C0.99 0.33 1.98 0.66 3 1 C2.360625 1.2475 1.72125 1.495 1.0625 1.75 C-1.17549168 2.78826429 -1.17549168 2.78826429 -1.5625 4.9375 C-1.706875 5.618125 -1.85125 6.29875 -2 7 C-3.3125 8.8125 -3.3125 8.8125 -5 10 C-6.32 9.67 -7.64 9.34 -9 9 C-6.03 6.03 -3.06 3.06 0 0 Z " fill="#363F84" transform="translate(112,98)"/>
<path d="M0 0 C0.99 0.33 1.98 0.66 3 1 C3.33 3.31 3.66 5.62 4 8 C1.03 7.505 1.03 7.505 -2 7 C-1.34 4.69 -0.68 2.38 0 0 Z " fill="#404B8E" transform="translate(461,210)"/>
<path d="M0 0 C-1.06838148 3.09830629 -1.94391009 3.96634605 -4.8125 5.6875 C-7.5952389 6.83333367 -10.03531813 7.56401737 -13 8 C-9.81692689 4.43495812 -5.03655764 0 0 0 Z " fill="#373F81" transform="translate(161,63)"/>
<path d="M0 0 C4.35647645 1.44950405 7.31757289 3.67747112 10.8125 6.625 C11.78832031 7.44226563 12.76414063 8.25953125 13.76953125 9.1015625 C14.50558594 9.72804688 15.24164063 10.35453125 16 11 C15.67 11.66 15.34 12.32 15 13 C12.6838794 11.21285146 10.37206728 9.42058195 8.0625 7.625 C7.40314453 7.11710938 6.74378906 6.60921875 6.06445312 6.0859375 C5.43603516 5.59609375 4.80761719 5.10625 4.16015625 4.6015625 C3.57886963 4.15119629 2.99758301 3.70083008 2.39868164 3.23681641 C1 2 1 2 0 0 Z " fill="#39427E" transform="translate(125,512)"/>
<path d="M0 0 C1.09570312 0.10183594 2.19140625 0.20367188 3.3203125 0.30859375 C4.16335938 0.39238281 5.00640625 0.47617187 5.875 0.5625 C3.875 2.5625 3.875 2.5625 1.5625 2.828125 C0.675625 2.82296875 -0.21125 2.8178125 -1.125 2.8125 C-2.4553125 2.82023437 -2.4553125 2.82023437 -3.8125 2.828125 C-6.125 2.5625 -6.125 2.5625 -8.125 0.5625 C-5.28943413 -0.85528293 -3.1341294 -0.30007622 0 0 Z " fill="#3E4888" transform="translate(334.125,26.4375)"/>
<path d="M0 0 C0.66 0 1.32 0 2 0 C3.17990239 3.53970718 3.19569268 6.28183899 3 10 C2.34 11.32 1.68 12.64 1 14 C0.67 9.38 0.34 4.76 0 0 Z " fill="#47518D" transform="translate(26,328)"/>
<path d="M0 0 C2.8203125 0.0234375 2.8203125 0.0234375 6.125 0.375 C7.22070312 0.48585938 8.31640625 0.59671875 9.4453125 0.7109375 C10.28835937 0.80632812 11.13140625 0.90171875 12 1 C12 1.66 12 2.32 12 3 C5.07 2.505 5.07 2.505 -2 2 C-1.34 1.34 -0.68 0.68 0 0 Z " fill="#3C4684" transform="translate(236,323)"/>
<path d="M0 0 C1.0828125 0.37125 1.0828125 0.37125 2.1875 0.75 C-0.50091859 3.00245881 -2.45891875 4.63213958 -5.8125 5.75 C-6.4725 5.09 -7.1325 4.43 -7.8125 3.75 C-3.50480769 -0.31153846 -3.50480769 -0.31153846 0 0 Z " fill="#3A4389" transform="translate(411.8125,353.25)"/>
<path d="M0 0 C-1.375 1.5 -1.375 1.5 -3 3 C-3.66 3 -4.32 3 -5 3 C-5.33 3.66 -5.66 4.32 -6 5 C-7.65 5 -9.3 5 -11 5 C-4.83050847 -1.61016949 -4.83050847 -1.61016949 0 0 Z " fill="#374284" transform="translate(181,189)"/>
<path d="M0 0 C2.13464982 4.26929965 2.17477026 4.72810816 1 9 C0.814375 9.763125 0.62875 10.52625 0.4375 11.3125 C0.293125 11.869375 0.14875 12.42625 0 13 C-0.66 13 -1.32 13 -2 13 C-1.34 8.71 -0.68 4.42 0 0 Z " fill="#414D88" transform="translate(33,229)"/>
<path d="M0 0 C4.41309542 3.15221101 7.00793014 6.55463907 10 11 C7 11 7 11 4.4375 8.875 C1.9327738 5.92070756 0.95073147 3.71649576 0 0 Z " fill="#39447F" transform="translate(506,118)"/>
<path d="M0 0 C5.61 0.33 11.22 0.66 17 1 C17 1.33 17 1.66 17 2 C11.06 2.33 5.12 2.66 -1 3 C-0.67 2.01 -0.34 1.02 0 0 Z " fill="#39438B" transform="translate(137,210)"/>
<path d="M0 0 C0.66 0 1.32 0 2 0 C2.12375 1.093125 2.2475 2.18625 2.375 3.3125 C2.75464801 7.07381802 2.75464801 7.07381802 5 10 C4.01 10 3.02 10 2 10 C-0.09350689 6.5980513 -0.17942163 3.94727588 0 0 Z " fill="#454F85" transform="translate(367,371)"/>
<path d="M0 0 C0.66 0.66 1.32 1.32 2 2 C-3.75 5.875 -3.75 5.875 -6 7 C-5.8125 4.625 -5.8125 4.625 -5 2 C-2.4375 0.6875 -2.4375 0.6875 0 0 Z " fill="#354088" transform="translate(433,441)"/>
<path d="M0 0 C0.99 0.66 1.98 1.32 3 2 C1.35 3.32 -0.3 4.64 -2 6 C-2.66 5.01 -3.32 4.02 -4 3 C-2.68 2.01 -1.36 1.02 0 0 Z " fill="#35408A" transform="translate(143,73)"/>
<path d="M0 0 C10.55808656 -0.3690205 10.55808656 -0.3690205 15 2 C14.34 2.66 13.68 3.32 13 4 C12.43796875 3.68289063 11.8759375 3.36578125 11.296875 3.0390625 C8.84803683 1.93125475 6.91612145 1.61024601 4.25 1.375 C3.45078125 1.30023438 2.6515625 1.22546875 1.828125 1.1484375 C1.22484375 1.09945313 0.6215625 1.05046875 0 1 C0 0.67 0 0.34 0 0 Z " fill="#404982" transform="translate(177,352)"/>
<path d="M0 0 C0.99 0.66 1.98 1.32 3 2 C1.02 3.32 -0.96 4.64 -3 6 C-3.66 5.34 -4.32 4.68 -5 4 C-3.35 2.68 -1.7 1.36 0 0 Z " fill="#39438A" transform="translate(132,81)"/>
<path d="M0 0 C0.66 0.33 1.32 0.66 2 1 C1.6875 2.9375 1.6875 2.9375 1 5 C0.01 5.33 -0.98 5.66 -2 6 C-2 6.66 -2 7.32 -2 8 C-2.66 7.67 -3.32 7.34 -4 7 C-2.68 4.69 -1.36 2.38 0 0 Z " fill="#3E4786" transform="translate(65,155)"/>
</svg>
